<svg xmlns="http://www.w3.org/2000/svg" viewBox="0 0 500 500"><defs><style>.cls-1{fill:#15181c;}.cls-1,.cls-10,.cls-11,.cls-12,.cls-13,.cls-14,.cls-15,.cls-16,.cls-17,.cls-19,.cls-2,.cls-20,.cls-21,.cls-22,.cls-23,.cls-24,.cls-25,.cls-26,.cls-27,.cls-28,.cls-3,.cls-30,.cls-31,.cls-32,.cls-33,.cls-34,.cls-35,.cls-36,.cls-37,.cls-38,.cls-39,.cls-4,.cls-40,.cls-41,.cls-42,.cls-43,.cls-44,.cls-45,.cls-47,.cls-5,.cls-50,.cls-51,.cls-52,.cls-53,.cls-54,.cls-55,.cls-56,.cls-7,.cls-8,.cls-9{fill-rule:evenodd;}.cls-2{fill:#c6c6c6;}.cls-3{fill:#0d0f11;}.cls-4{fill:#70853b;}.cls-5,.cls-6{fill:#83a24b;}.cls-18,.cls-7{fill:#754641;}.cls-8{fill:#f2eeef;}.cls-9{fill:#96bb55;}.cls-10{fill:#bfd867;}.cls-11{fill:#ef8871;}.cls-12{fill:#f19c80;}.cls-13{fill:#ebf0f3;}.cls-14{fill:#fff;}.cls-15{fill:#e8685b;}.cls-16,.cls-29{fill:#422a2f;}.cls-17{fill:#925d59;}.cls-19{fill:#050a25;}.cls-20,.cls-49{fill:#331b16;}.cls-21{fill:#f4ad85;}.cls-22{fill:#004b6c;}.cls-23{fill:#003854;}.cls-24{fill:#012336;}.cls-25{fill:#28698d;}.cls-26{fill:#1f5e82;}.cls-27{fill:#70413c;}.cls-28{fill:#643c38;}.cls-30{fill:#2e130f;}.cls-31{fill:#d64341;}.cls-32{fill:#f6be9f;}.cls-33{fill:#0c5c44;}.cls-34{fill:#398767;}.cls-35{fill:#51a47d;}.cls-36{fill:#398365;}.cls-37{fill:#ef8200;}.cls-38{fill:#f4a300;}.cls-39{fill:#f7b500;}.cls-40{fill:#e84d09;}.cls-41{fill:#ec6f00;}.cls-42{fill:#ee7e00;}.cls-43{fill:#e51312;}.cls-44{fill:#e7350f;}.cls-45{fill:#e84a0a;}.cls-46,.cls-50{fill:#df8d45;}.cls-47,.cls-57{fill:#c6733a;}.cls-48,.cls-51{fill:#f6b478;}.cls-52{fill:#237054;}.cls-53{fill:#ea5e02;}.cls-54{fill:#893822;}.cls-55{fill:#726840;}.cls-56{fill:#928459;}</style></defs><title>Artboard 1</title><g id="OBJECTS"><path class="cls-1" d="M371.0371,426.9277c-.4775-3.3457.7022-6.9355,3.9951-8.665,18.8-9.876,42.09-20.5322,63.2481-17.5508a83.4387,83.4387,0,0,0,15.497-48.4424,84.3,84.3,0,0,0-84.0537-84.0517,16.8684,16.8684,0,0,1,0-33.7368h43.9815a41.004,41.004,0,0,0,.0791-82.0079H373.7715a35.5646,35.5646,0,0,1-35.46-35.4614v-.0005A64.8919,64.8919,0,0,0,273.6094,52.31h-149.5a84.0523,84.0523,0,1,0,0,168.1045,16.9169,16.9169,0,0,1,16.8686,16.8676v0a16.9186,16.9186,0,0,1-16.8686,16.8692H80.1265a41.0029,41.0029,0,1,0,0,82.0058A35.5677,35.5677,0,0,1,115.5894,371.62a64.8918,64.8918,0,0,0,64.7021,64.7022H366.2393A15.141,15.141,0,0,1,371.0371,426.9277Z"/><path class="cls-2" d="M320.0586,120.9932a9.4851,9.4851,0,0,0-3.3047.5908,2.5429,2.5429,0,0,0-2.8623-.6372,4.24,4.24,0,0,0-6.8027-3.04,2.5085,2.5085,0,0,0-2.0342-1.0376,2.6026,2.6026,0,0,0-.41.0336,5.4733,5.4733,0,0,0-6.6474-7.3779,2.4859,2.4859,0,0,0-2.251-1.4316l-.0732.0014c.0126-.1977.0195-.396.0195-.5957a9.8316,9.8316,0,1,0-19.6631,0c0,.0752.002.1509.0039.2271a6.05,6.05,0,0,0-4.3.5127,7.8764,7.8764,0,0,0-13.8408,7.1c-.08-.0044-.1582-.0083-.2393-.0083a3.8781,3.8781,0,0,0-3.8769,3.8794,3.9693,3.9693,0,0,0,.0683.7353c-.0273-.0009-.0527-.0019-.0791-.0019a2.2369,2.2369,0,0,0-2.2363,2.1616,5.57,5.57,0,0,0-1.0366-.0972,5.2773,5.2773,0,0,0-3.6485,1.3775c-2.52,2.3823.2305,3.0014,2.88,3.0014h73.2471c2.7617,0,6.708.4522,3.9668-2.4365A9.4546,9.4546,0,0,0,320.0586,120.9932Z"/><path class="cls-3" d="M348.8359,425.3066c17.3409-3.7949,33.4707-11.4589,50.6241-15.875a114.1284,114.1284,0,0,1,19.415-3.1142c5.9873-2.2695,11.7666-4.3311,18.4346-4.2432a83.5355,83.5355,0,0,0,5.7226-90.7851c-10.499-.6368-24.665-.8614-44.02-.4248-18.48.4189-20.6855,4.6562-23.6806,19.8877-.87,2.36-8.0674,4.2626-9.6612-1.0879-1.1074-3.7237-9.9267-42.6739-9.9267-42.6739a2.8965,2.8965,0,0,0-2.85-2.2343H339.0088c-2.64,0-5.4922,1.8886-6.8643,5.9-1.3711,4.0078-4.1172,12.6015-4.1172,12.6015a4.1642,4.1642,0,0,1-3.6425,2.2334h-4.9092a6.4351,6.4351,0,0,1-6.2305-5.3838c-.6875-4.2959-14.4687-76.7-14.4687-76.7s-1.7412-6.3008-4.8037-6.3008H281.9883c-3.4844,0-6.334,4.6963-7.6016,8.82s-6.4414,17.9869-6.4414,17.9869a6.4529,6.4529,0,0,1-5.9111,4.0669H248.36c-3.1172,0-4.9185-8.0176-5.9742-12.4854-1.0581-4.4678-24.2866-133.0078-24.2866-133.0078s-.9526-4.1826-2.8794-4.1826H207.644c-2.059,0-4.4116,1.144-6.9458,3.0918s-8.34,6.3008-8.34,6.3008-3.4307,2.7495-3.4307,9.1084-6.8232,99.8994-7.3667,107.0278C178.1157,269.01,150.8564,295.03,133.8477,295.03c-3.06,0-57.06.1972-94.7173.5732a41.122,41.122,0,0,0,40.9961,40.5537A35.5677,35.5677,0,0,1,115.5894,371.62a64.8918,64.8918,0,0,0,64.7021,64.7022H343.3408C341.6553,431.9854,343.002,426.583,348.8359,425.3066Z"/><path class="cls-4" d="M330.7559,313.1387a36.9416,36.9416,0,0,0-36.94,36.9414c0,.8535.03,1.7012.085,2.541a32.7582,32.7582,0,0,0-26.6631,23.88,18.1709,18.1709,0,0,0-9.4707,3.706,23.1069,23.1069,0,0,0-37.9731,25.28H419.6162a32.8138,32.8138,0,0,0-31.38-42.33,33.3384,33.3384,0,0,0-4.0234.2451A20.66,20.66,0,0,0,367.69,350.834c.0048-.251.01-.501.01-.7539A36.9422,36.9422,0,0,0,330.7559,313.1387Z"/><path class="cls-5" d="M394.2334,383.5254a17.2912,17.2912,0,0,0-6.8652,1.4111,12.0562,12.0562,0,0,0-13.0118-6.7412,19.3157,19.3157,0,0,0-25.4482-15.0264A27.8917,27.8917,0,0,0,298.3115,384.55a12.1771,12.1771,0,0,0-1.87-.1435,12.0261,12.0261,0,0,0-9.1553,4.2138,15.5315,15.5315,0,0,0-22.5576,5.9346,10.5215,10.5215,0,0,0-12.0547,10.4014c0,.1767.0049.3554.0137.5312h158.291a17.3724,17.3724,0,0,0-16.7451-21.9619Z"/><path class="cls-5" d="M235.6714,394.1416a5.291,5.291,0,1,0-5.292-5.292A5.3013,5.3013,0,0,0,235.6714,394.1416Z"/><path class="cls-5" d="M279.3164,381.8232a3.6772,3.6772,0,1,0-3.6758-3.6787A3.6853,3.6853,0,0,0,279.3164,381.8232Z"/><path class="cls-5" d="M329.0889,330.7568a5.29,5.29,0,1,0-5.2891-5.291A5.3,5.3,0,0,0,329.0889,330.7568Z"/><path class="cls-5" d="M350.3,342.3691a5.292,5.292,0,1,0-5.292-5.292A5.3013,5.3013,0,0,0,350.3,342.3691Z"/><path class="cls-5" d="M406.084,382.6348a4.3814,4.3814,0,1,0-4.3828-4.3809A4.3905,4.3905,0,0,0,406.084,382.6348Z"/><path class="cls-5" d="M323.209,344.2852a3.2911,3.2911,0,1,0-3.293-3.29A3.2972,3.2972,0,0,0,323.209,344.2852Z"/><path class="cls-5" d="M334.69,340.6406a1.645,1.645,0,1,0-1.6456-1.6445A1.6477,1.6477,0,0,0,334.69,340.6406Z"/><path class="cls-5" d="M356.1387,348.8125a1.646,1.646,0,1,0-1.6465-1.6465A1.6488,1.6488,0,0,0,356.1387,348.8125Z"/><path class="cls-5" d="M393.3164,376.3867a1.645,1.645,0,1,0-1.6455-1.6455A1.6467,1.6467,0,0,0,393.3164,376.3867Z"/><path class="cls-5" d="M306.2959,342.6826a1.6455,1.6455,0,1,0-1.6445-1.6445A1.6488,1.6488,0,0,0,306.2959,342.6826Z"/><path class="cls-5" d="M290.7705,368.83a1.6455,1.6455,0,1,0-1.6445-1.6446A1.6476,1.6476,0,0,0,290.7705,368.83Z"/><circle class="cls-6" cx="296.7744" cy="358.2109" r="2.5591"/><path class="cls-5" d="M361.2305,358.6143a2.56,2.56,0,1,0-2.56-2.56A2.5645,2.5645,0,0,0,361.2305,358.6143Z"/><path class="cls-5" d="M379.4492,373.0361a2.56,2.56,0,1,0-2.5605-2.5595A2.5661,2.5661,0,0,0,379.4492,373.0361Z"/><path class="cls-2" d="M210.5127,87.4106a10.2093,10.2093,0,0,0-3.57.6407,2.7538,2.7538,0,0,0-3.0962-.6905,4.5843,4.5843,0,0,0-7.3555-3.2876,2.7132,2.7132,0,0,0-2.2-1.1211,2.7936,2.7936,0,0,0-.4433.0357A5.9183,5.9183,0,0,0,186.66,75.01a2.6837,2.6837,0,0,0-2.4331-1.5474l-.0791,0c.0131-.2124.021-.4278.021-.6441a10.63,10.63,0,0,0-21.26,0c0,.0826.001.1646.0029.2466a6.5221,6.5221,0,0,0-4.6494.5547,8.5164,8.5164,0,0,0-14.9658,7.6768c-.0855-.0059-.1709-.0093-.2578-.0093a4.1938,4.1938,0,0,0-4.1939,4.1933,4.244,4.244,0,0,0,.0767.7964c-.03-.0014-.06-.0024-.0874-.0024a2.4186,2.4186,0,0,0-2.4175,2.3379,6.0158,6.0158,0,0,0-1.1216-.1055,5.7115,5.7115,0,0,0-3.9453,1.4883c-2.7226,2.5767.251,3.2461,3.1162,3.2461h79.1973c2.9868,0,7.2534.4892,4.29-2.6348A10.2282,10.2282,0,0,0,210.5127,87.4106Z"/><path class="cls-2" d="M94.3423,156.0376a26.2422,26.2422,0,0,1,9.1621,1.6411,7.0628,7.0628,0,0,1,7.9448-1.7685,11.7588,11.7588,0,0,1,18.8672-8.4361A6.9746,6.9746,0,0,1,137.1,144.69s1.0034-6.0239,15.0312-5.3559c9.147.4365,15.24,8.1533,16.9209,17.0752,1.7051,9.0464-4.8359,14.5879-16.6879,14.5879H86.2612c-7.6635,0-18.6113,1.2558-11.0053-6.7588A26.2339,26.2339,0,0,1,94.3423,156.0376Z"/><path class="cls-7" d="M412.8271,174.8369a2.003,2.003,0,1,1,3.94.7266L391.5225,312.6641a2.0039,2.0039,0,0,1-3.9414-.7266Z"/><path class="cls-2" d="M374.7246,292.5693l35.7119,6.5762a5.0491,5.0491,0,0,1,4.0391,5.8633l-3.84,20.8516L409.5,332.0225l-.3037,1.6572A23.2629,23.2629,0,0,1,382.19,352.2891h0a23.26,23.26,0,0,1-18.6075-27.0078l.3037-1.6583,1.1348-6.16,3.84-20.8525A5.0509,5.0509,0,0,1,374.7246,292.5693Z"/><path class="cls-8" d="M408.1094,298.7168l2.3271.4287a5.0491,5.0491,0,0,1,4.0391,5.8633l-3.84,20.8516L409.5,332.0225l-.3037,1.6572A23.2629,23.2629,0,0,1,382.19,352.2891h0a23.26,23.26,0,0,1-18.6075-27.0078l.3037-1.6583,1.1348-6.16.29-1.5742C389.7227,339.6748,415.8076,315.7617,408.1094,298.7168Z"/><path class="cls-9" d="M198.8594,329.6455a30.3367,30.3367,0,0,0-30.3369,30.3379q0,1.05.07,2.085a26.9133,26.9133,0,0,0-21.8989,19.6123,14.9463,14.9463,0,0,0-7.7769,3.0439,18.9785,18.9785,0,0,0-31.188,20.7627H271.8379a26.9369,26.9369,0,0,0-29.0772-34.56,16.9622,16.9622,0,0,0-13.5683-10.3252c.0034-.2041.0083-.4121.0083-.6182A30.3393,30.3393,0,0,0,198.8594,329.6455Z"/><path class="cls-10" d="M250.9917,387.4512a14.2387,14.2387,0,0,0-5.6387,1.1572,9.9037,9.9037,0,0,0-10.6855-5.5352,15.8587,15.8587,0,0,0-20.9-12.34,22.9073,22.9073,0,0,0-41.5537,17.56,9.9065,9.9065,0,0,0-9.0542,3.3408,12.76,12.76,0,0,0-18.5259,4.874,8.8748,8.8748,0,0,0-1.2666-.0928,8.635,8.635,0,0,0-8.6348,8.6338c0,.1485.0054.293.0132.4385H264.7451a14.27,14.27,0,0,0-13.7534-18.0361Z"/><path class="cls-10" d="M120.7705,396.168a4.3448,4.3448,0,1,0-4.3462-4.3438A4.3526,4.3526,0,0,0,120.7705,396.168Z"/><path class="cls-10" d="M156.6157,386.0518a3.02,3.02,0,1,0-3.02-3.02A3.0256,3.0256,0,0,0,156.6157,386.0518Z"/><path class="cls-10" d="M197.4907,344.1143a4.3453,4.3453,0,1,0-4.3452-4.3448A4.3531,4.3531,0,0,0,197.4907,344.1143Z"/><path class="cls-10" d="M214.9106,353.65a4.3457,4.3457,0,1,0-4.3447-4.3467A4.3558,4.3558,0,0,0,214.9106,353.65Z"/><path class="cls-10" d="M260.7246,386.7207a3.5987,3.5987,0,1,0-3.6-3.5986A3.6047,3.6047,0,0,0,260.7246,386.7207Z"/><path class="cls-10" d="M192.6606,355.2227a2.7022,2.7022,0,1,0-2.7026-2.7022A2.7082,2.7082,0,0,0,192.6606,355.2227Z"/><path class="cls-10" d="M202.09,352.2305a1.3516,1.3516,0,1,0-1.3515-1.3506A1.3544,1.3544,0,0,0,202.09,352.2305Z"/><path class="cls-10" d="M219.7065,358.9414a1.3511,1.3511,0,1,0-1.3525-1.3516A1.3532,1.3532,0,0,0,219.7065,358.9414Z"/><path class="cls-10" d="M250.2378,381.5879a1.3511,1.3511,0,1,0-1.3506-1.35A1.3523,1.3523,0,0,0,250.2378,381.5879Z"/><path class="cls-10" d="M178.7715,353.9082a1.3511,1.3511,0,1,0-1.3511-1.3516A1.3533,1.3533,0,0,0,178.7715,353.9082Z"/><path class="cls-10" d="M166.0205,375.3828a1.3521,1.3521,0,1,0-1.35-1.3535A1.3541,1.3541,0,0,0,166.0205,375.3828Z"/><path class="cls-10" d="M170.9521,368.7617a2.1006,2.1006,0,1,0-2.101-2.1006A2.1051,2.1051,0,0,0,170.9521,368.7617Z"/><path class="cls-10" d="M223.8882,366.9922a2.1021,2.1021,0,1,0-2.1021-2.1016A2.1064,2.1064,0,0,0,223.8882,366.9922Z"/><path class="cls-10" d="M238.85,378.835a2.1011,2.1011,0,1,0-2.1025-2.1006A2.1063,2.1063,0,0,0,238.85,378.835Z"/><path class="cls-11" d="M311.6846,204.6958s-6.7246,3.2124-12.5469,5.6206c-5.82,2.4087-10.44.5024-13.35-2.6094s-10.3369-11.6425-10.3369-11.6425l34.7265,1.9067Z"/><path class="cls-12" d="M309.2344,199.2261h-7.5928a3.6636,3.6636,0,0,0-3.6533,3.6538h0a3.6642,3.6642,0,0,0,3.6533,3.6538h7.5928a3.6639,3.6639,0,0,0,3.6543-3.6538h0A3.6632,3.6632,0,0,0,309.2344,199.2261Z"/><path class="cls-11" d="M175.8242,204.6958s6.7251,3.2124,12.5474,5.6206c5.8208,2.4087,10.4385.5024,13.35-2.6094s10.3369-11.6425,10.3369-11.6425l-34.728,1.9067Z"/><path class="cls-12" d="M170.7031,199.2261h7.5923a3.6634,3.6634,0,0,1,3.6538,3.6538h0a3.664,3.664,0,0,1-3.6538,3.6538h-7.5923a3.6653,3.6653,0,0,1-3.6552-3.6538h0A3.6646,3.6646,0,0,1,170.7031,199.2261Z"/><path class="cls-13" d="M227.7012,120.2041c-1.2188.5107-3.5064,1.4863-4.7071,3.34-6.7334,10.3951-12.5087,20.8726-19.2177,31.65l3.9165,21.2754a6.51,6.51,0,0,0,1.9751-.9678c3.8266-2.6748,12.875-10.8715,19.5747-18.769C233.708,151.47,234.6226,125.15,227.7012,120.2041Z"/><path class="cls-14" d="M240.0229,116.8643s-10.2641,2.7378-12.3217,3.34-7.4785,14.3032-8.7832,27.3506c-1.3047,13.05-.3272,62.8237-1.0669,71.1592s-.8062,11.1958-1.14,12.7509c-1.8359,8.5425,45.9024,8.0865,57.8321-.7861a7.2093,7.2093,0,0,0,1.7881-4.583c.2246-3.1079-6.6358-35.8584-2.7764-65.1587l1.56-36.5058s-11.2832-5.2984-16.3936-7.22S240.0229,116.8643,240.0229,116.8643Z"/><path class="cls-13" d="M275.1143,124.4312c.9931.7617,1.9492.934,2.5478,2.0356,5.919,10.88,11.584,21.8574,17.4609,32.7544v21.4756a6.5057,6.5057,0,0,1-1.9755-.9663c-3.8252-2.6763-12.8731-10.8726-19.5743-18.77C269.1064,155.6973,268.1924,129.3774,275.1143,124.4312Z"/><path class="cls-13" d="M235.22,118.15c.772,2.5117,1.47,5.29,7.314,7.4995,6.1054,2.3081,17.5517-.894,20.3554-5.9868.1163-.208.2286-.4087.3428-.6006-1.6982-.7309-3.2842-1.3891-4.5117-1.8511-5.1094-1.9209-18.6978-.3466-18.6978-.3466S237.8013,117.4556,235.22,118.15Z"/><path class="cls-15" d="M257.126,96.834l-.2129,4.99v11.774a4.7479,4.7479,0,0,0,1.8076,3.6132c-4.3584,6.0948-16.9482,6.7837-18.6978-.3466a6.6685,6.6685,0,0,0,2.4161-1.8755c1.705-1.8618,1.2563-10.7871-.4493-12.959C240.2817,99.8564,257.126,96.834,257.126,96.834Z"/><path class="cls-7" d="M248.1694,44.66c12.3492,0,22.3638,12.5683,22.3638,28.0713a35.2083,35.2083,0,0,1-.4092,5.3525H226.2129a35.339,35.339,0,0,1-.4067-5.3525C225.8062,57.228,235.8179,44.66,248.1694,44.66Z"/><path class="cls-16" d="M269.3633,63.7515a34.61,34.61,0,0,1,1.17,8.9795,35.2083,35.2083,0,0,1-.4092,5.3525H226.2129a35.339,35.339,0,0,1-.4067-5.3525,34.61,34.61,0,0,1,1.1674-8.9795,91.7369,91.7369,0,0,1,42.39,0Z"/><path class="cls-17" d="M248.5391,68.5015c27.0361,0,48.9521,6.0927,48.9521,13.6069v3.6167H199.5864V82.1084C199.5864,74.5942,221.5034,68.5015,248.5391,68.5015Z"/><ellipse class="cls-18" cx="248.539" cy="85.7251" rx="48.9522" ry="13.606"/><path class="cls-19" d="M230.1826,78.7134a12.8683,12.8683,0,0,0,2.6895-.0161c3.9453-.3916,37.1543.9463,37.1543.9463a.5644.5644,0,0,0,.3506-.002H270.35c0-1.6318-9.2256-2.9561-20.604-2.9561C240.63,76.6855,232.8979,77.5356,230.1826,78.7134Z"/><path class="cls-15" d="M230.415,83.9263a5.563,5.563,0,1,1-5.5625,5.5634A5.5628,5.5628,0,0,1,230.415,83.9263Z"/><path class="cls-20" d="M229.1421,89.1855a5.281,5.281,0,0,0-.7754,2.6812,59.9381,59.9381,0,0,0,.5786,8.5532c.5547,3.9761,4.54,11.1114,12.51,14.5239Z"/><path class="cls-20" d="M229.1421,85.7251s-.3374-1.1685-1.0762-1.28a13.33,13.33,0,0,1-1.062-2.47c-.0454-.5542,1.1191-1.9985,2.583-2.9443C229.5869,79.03,229.8716,85.35,229.1421,85.7251Z"/><path class="cls-15" d="M268.5273,83.9263a5.563,5.563,0,1,1-5.5634,5.5634A5.5631,5.5631,0,0,1,268.5273,83.9263Z"/><path class="cls-21" d="M267.2549,78.0835v14.082a19.1115,19.1115,0,0,1-19.0571,19.0557h0a19.1109,19.1109,0,0,1-19.0557-19.0557V79.6416c0-1.6318,9.2246-2.9561,20.6035-2.9561C257.1377,76.6855,263.62,77.2446,267.2549,78.0835Z"/><path class="cls-11" d="M267.2559,78.0835V92.1646A19.12,19.12,0,0,1,249.77,111.1558a2.9655,2.9655,0,0,1,2.42-2.8438c10.0537-2.4155,9.2266-18.063,8.9961-22.8252-.2324-4.7627-2.4961-6.7036-5.456-7.1665s-12.02-.6011-19.6021.3057c-4.311.5156-6.1772,1.9463-6.9863,3.084V79.6416c0-1.6318,9.2246-2.9561,20.6035-2.9561C257.1377,76.6855,263.62,77.2446,267.2559,78.0835Z"/><path class="cls-20" d="M262.1436,77.2808c.3418,4.0893,2.0654,6.0376,2.8359,6.6611,0,0,.0273,4.707,2.2754,5.335,0,0-.459-5.5474,2.74-5.1543l.3819-4.481h-.0293C270.3477,78.6772,267.127,77.82,262.1436,77.2808Z"/><path class="cls-22" d="M216.7544,199.1763c.3018-3.5137,4.4165-5.5215,4.3159-14.856s-.0019-32.0181.9024-35.4307c.9023-3.4116,2.7485-4.581,6.622-4.2167s19.7056,1.8085,30.6143,1.4052c0,0,4.8183-.3,5.5195,5.6216.7041,5.9219-.3,33.4224.4024,37.8384s4.8007,6.2954,7.82,6.4106l-.1866-2.85s2.5069,1.0069,3.2081,5.3218c2.9209,17.9438-5.3282,151.7256-5.7344,164.2783-.4278,13.2373-12.0235,3.6748-12.2569-.3955-.6376-11.0918-8.7626-99.291-9.79-103.2324-1.96-7.5293-7.6323-8.9434-8.082-5.167-1.14,9.5723-4.8994,90.32-5.6865,109.1777-.438,10.5176-12.19,4.78-12.4058,1.19C218.6909,309.3271,212.1392,253.043,216.7544,199.1763Z"/><path class="cls-23" d="M250.0586,146.0713c3.1855.0913,6.332.1113,9.15.0068,0,0,4.8183-.3,5.5195,5.6216.7041,5.9219-.3,33.4224.4024,37.8384s4.8007,6.2954,7.82,6.4106l-.1866-2.85s2.5069,1.0069,3.2081,5.3218c2.9209,17.9438-5.3282,151.7256-5.7344,164.2783a11.16,11.16,0,0,1-.9824,4.7363l-2.93-.3955s2.2568-107.0488-2.7617-125.3154c-5.0186-18.2681-27.7027-16.3628-39.0464-16.061a11.9186,11.9186,0,0,0-9.2788,4.1928q.104-6.1728.3588-12.3149l36.7759,1.5991-6.2285-1.8413s4.8228-.8691,5.5264-12.2109-4.5176-12.7466-4.5176-12.7466l2.4145-18.8691s1-7.0269,1.8033-17.6656c.417-5.5434-.4175-8.334-1.3135-9.7358ZM246.52,255.083h0s-1.8232-6.1323-5.7871-6.2319-5.5224,5.7212-5.8232,13.7505-5.1328,98.623-5.1328,98.623l4.6723,1.2842c.835-19.85,4.5313-99.124,5.6607-108.6045C240.4639,250.9316,244.05,251.1758,246.52,255.083Z"/><path class="cls-24" d="M269.9834,365.19a8.9727,8.9727,0,0,1-.5146,1.7968.7131.7131,0,0,1-.1026.0059.6015.6015,0,0,1-.6006-.6065c0-.1455.3067-50.1152,1.8545-85.039.7715-17.3848,1.19-33.4707,1.416-45.2559-1.124-.5322-4.414-2.1777-4.8271-3.4077-.4463-1.3325-1.6328-13.8984-1.6348-13.9341a.6049.6049,0,1,1,1.2041-.1181c.0039.0341,1.1934,12.52,1.5772,13.6694.2412.7158,2.4658,1.8706,3.705,2.4658.2061-11.13.2344-18.0923.2344-18.1343a.605.605,0,0,1,1.21.0049c0,.0425-.03,7.395-.252,19.0576l-.0029.0518c-.2227,11.8325-.6406,28.0879-1.42,45.6533C270.42,313.1953,270.0391,357.3965,269.9834,365.19Z"/><path class="cls-25" d="M276.5693,213.145c.0245,1.8692.0323,3.9121.0235,6.1118a218.2253,218.2253,0,0,1-60.9.1387q.14-3.0417.3227-6.0776A211.07,211.07,0,0,0,276.5693,213.145Z"/><path class="cls-26" d="M254.1875,176.9277v5.6045l-.0059.1363a14.3334,14.3334,0,0,1-14.289,14.0166h0a14.3356,14.3356,0,0,1-14.29-14.0166l-.0029-.1363V169.7573a2.4335,2.4335,0,0,1,2.4272-2.4277h23.7315a2.4345,2.4345,0,0,1,2.4287,2.4277Z"/><path class="cls-25" d="M231.3359,193.8208a14.3006,14.3006,0,0,1-5.7329-11.1523l-.0029-.1363V169.7573a2.4335,2.4335,0,0,1,2.4272-2.4277h21.5386l.0029.12v12.7739l-.0029.1358a14.3366,14.3366,0,0,1-14.2905,14.018h0A14.2135,14.2135,0,0,1,231.3359,193.8208Z"/><path class="cls-16" d="M258.6,398.2129l-.5713.4258a1.8423,1.8423,0,0,0-.6689,1.3105V401.28a1.2424,1.2424,0,0,0,.6084,1.2627c.7666.4511,3.9033,2.0273,3.9033,2.0273l1.3076-4.4853Z"/><path class="cls-16" d="M235.26,400.6631v4.2275c0,.2715-.295.8291-1.2119.8291h-5.14c-.9609,0-1.3223-.3457-1.8638-1.247-.5405-.9034-2.2246-3.8643-2.2246-3.8643Z"/><path class="cls-27" d="M221.1284,361.8008v21.665c0,3.9072-1.8667,6.8311-5.9443,10.1153-4.0767,3.2822-6.9732,3.0791-8.627,3.0791h-3.8662c-2.7724,0-3.0683,1.95-3.0683,2.9365v2.3056a1.3628,1.3628,0,0,0,.769,1.2325l.2144,1.3076h14.5766s2.2378.2353,3.356-.9561,3.5166-3.6084,6.4765-3.6084h8.01c1.9487,0,2.6352-1.0263,2.6352-1.7031a2.9782,2.9782,0,0,0,.4493-1.7227c0-1.1367.4355-5.0761,0-6.7031a23.0333,23.0333,0,0,1-1.5816-8.4287c0-4.7344.9585-16.9023.9585-17.8642,0-.9639-.7207-3.3379-2.4048-3.3379h-9.4389C221.4482,360.1182,221.1284,360.7227,221.1284,361.8008Z"/><path class="cls-28" d="M210.9668,404.4414h4.2158s2.2378.2344,3.356-.9551,3.5185-3.6084,6.4765-3.6084h8.01c1.9477,0,2.6352-1.0263,2.6352-1.7031a2.9782,2.9782,0,0,0,.4493-1.7227c0-1.1367.4365-5.0761,0-6.7031a23.0333,23.0333,0,0,1-1.5816-8.4287c0-4.7344.9585-16.9023.9585-17.8642,0-.9639-.7207-3.3379-2.4048-3.3379h-4.5971a4.8411,4.8411,0,0,1,2.3979,4.2382v23.1348c0,3.4111-2.0566,7.2266-5.0171,7.2266-2.9629,0-4.167.5537-5.4717,1.6074s-3.4624,4.4658-7.8286,4.4658C211.04,400.791,210.7285,402.3779,210.9668,404.4414Z"/><path class="cls-16" d="M218.6733,390.2a22.654,22.654,0,0,1-3.4892,3.3809,14.3678,14.3678,0,0,1-4.4087,2.5322l3.4453,1.791a2.7276,2.7276,0,0,0,2.3091-.4014c.8974-.5879,3.4936-2.8047,4.83-3.96,1.4829-1.2813,2.7212-3.3428-.3125-3.3428Z"/><path class="cls-7" d="M207.4707,396.66c-.3071.0039-.584.0019-.835,0h-3.9448c-2.7724,0-3.0683,1.95-3.0683,2.9365v2.3056a1.3628,1.3628,0,0,0,.769,1.2325l.2144,1.3066h13.8662a6.975,6.975,0,0,0,.0468-.7978h0a7.0031,7.0031,0,0,0-6.9814-6.9834Z"/><path class="cls-27" d="M275.79,396.499a5.9163,5.9163,0,0,1-3.5312-3.0693c-.9912-2.3447-1.6221-4.3281-1.6221-9.5615V364.6563c0-2.8858-.8974-4.5381-3.1094-4.5381h-7.3505c-2.2559,0-3.2461,1.5185-3.2461,4.8545,0,6.6357,2.6621,17.6044.7656,23.4072a8.6087,8.6087,0,0,0-.18,3.1357v5.4805a2.403,2.403,0,0,0,1.1055,2.165c.541.27,4.0586,1.9151,4.0586,1.9151Z"/><path class="cls-28" d="M263.5137,360.1182h-3.3369c-2.2539,0-3.2461,1.5166-3.2461,4.8545,0,6.6357,2.6621,17.6044.7656,23.4082a8.6014,8.6014,0,0,0-.18,3.1347v5.4805a2.403,2.403,0,0,0,1.1055,2.165c.541.27,4.0586,1.9151,4.0586,1.9151l3.8447-1.3418c1.2705-1.4414,2.4082-2.8955,2.1963-3.2793-.4512-.8223-3.8633-4.4971-4.8682-5.6514s-1.6055-4.1641-1.6055-6.6738V364.7061C262.248,362.167,262.8789,360.8252,263.5137,360.1182Z"/><path class="cls-16" d="M275.79,396.5a5.9221,5.9221,0,0,1-3.5312-3.07,17.0514,17.0514,0,0,1-1.3789-4.9365h-6.7c-2.2588,0-2.1592,1.582-2.1592,2.2578v2.584c0,.7041.3223,2.2656,2.9609,4.1416a9.3812,9.3812,0,0,0,4.3467,1.2812Z"/><path class="cls-16" d="M200.3916,403.1348v1.2021c0,.3916.0293,1.3828,1.5635,1.3828h15.1987a5.6658,5.6658,0,0,0,3.1108-1.4726c.9634-.8721,2.5875-3.1407,4.4815-3.1407h8.72c2.1035,0,2.1948-.9023,2.1948-1.5185v-1.4131a3.013,3.013,0,0,1-2.51.8721H224.01a4.9639,4.9639,0,0,0-3.6695,1.9238c-.6006.6006-2.57,3.0371-3.7573,3.0371h-14.88C200.3916,404.0078,200.3916,403.1348,200.3916,403.1348Z"/><path class="cls-7" d="M279.1553,404.0078s.33-.29.33-1.3115c0-1.0234.1787-6.2412-4.4034-6.2412h-9.81a3.0229,3.0229,0,0,0-3.3614,3.18v4.373l1.3565.7276,14.9463.2119Z"/><path class="cls-29" d="M261.91,404.0078h17.2452a.4961.4961,0,0,1,.4961.4961v.72a.4961.4961,0,0,1-.4961.4961H261.9111a.4961.4961,0,0,1-.4961-.4961v-.7207A.4951.4951,0,0,1,261.91,404.0078Z"/><path class="cls-25" d="M267.5264,120.9531c-.2422-1.0107-3.2461-2.3652-4.5235-1.99-9.8027,10.1338-9.9736,31.7759-9.9746,31.8437a2.2664,2.2664,0,1,0,4.5322.0718C257.5625,150.813,257.7529,128.7627,267.5264,120.9531Z"/><path class="cls-25" d="M230.6743,149.09a2.2664,2.2664,0,1,1-4.5327-.0346c0-.064.0742-18.7993,4.4038-29.64.5957-1.438,5.5234-2.1753,5.9194-1.5986C230.7793,125.3921,230.6743,149.0205,230.6743,149.09Z"/><path class="cls-30" d="M236.0039,85.0024h0a1.6709,1.6709,0,0,1,1.6992,1.6353l.0415,2.1758a1.6734,1.6734,0,0,1-1.6372,1.6992h0a1.671,1.671,0,0,1-1.6977-1.6362l-.0415-2.1748A1.6719,1.6719,0,0,1,236.0039,85.0024Z"/><path class="cls-30" d="M255.0371,84.6411h0a1.6715,1.6715,0,0,1,1.6992,1.6358l.041,2.1752a1.6725,1.6725,0,0,1-1.6357,1.6993h0a1.6725,1.6725,0,0,1-1.6992-1.6368l-.041-2.1748A1.6708,1.6708,0,0,1,255.0371,84.6411Z"/><path class="cls-15" d="M235.042,91.603a2.4655,2.4655,0,1,1-2.4185,2.5117A2.4661,2.4661,0,0,1,235.042,91.603Z"/><path class="cls-15" d="M256.251,91.2a2.4658,2.4658,0,1,1-2.4209,2.5127A2.4688,2.4688,0,0,1,256.251,91.2Z"/><path class="cls-30" d="M250.0518,99.4429a4.2125,4.2125,0,1,1-8.4185.331h.0068a.7317.7317,0,0,1,.6983-.7558l6.9512-.2735a.7314.7314,0,0,1,.7573.6983Z"/><path class="cls-31" d="M248.6133,102.7817a4.2146,4.2146,0,0,1-4.8545.4888,2.6205,2.6205,0,0,1,2.3447-1.6479A2.6551,2.6551,0,0,1,248.6133,102.7817Z"/><path class="cls-14" d="M242.2461,99.0293l6.5327-.2573a1.48,1.48,0,0,1-.6528,1.6391c-.5835.2159-5.3155.2793-5.666-.08A2.525,2.525,0,0,1,242.2461,99.0293Z"/><path class="cls-30" d="M233.2783,82.3179a.5055.5055,0,1,1-.4531-.9038c.0083-.0039,3.01-1.5957,5.6992.0185a.506.506,0,0,1-.52.8682A5.2287,5.2287,0,0,0,233.2783,82.3179Z"/><path class="cls-30" d="M257.3564,82.3179a.5051.5051,0,0,0,.4512-.9038c-.0078-.0039-3.01-1.5957-5.6992.0185a.5059.5059,0,0,0,.52.8682A5.2354,5.2354,0,0,1,257.3564,82.3179Z"/><path class="cls-20" d="M232.1982,102.4839c8.2081,9.6611,26.7637,8.6162,31.6133-4.0967,1.6592-4.3516,1.2149-9.8335,1.168-14.4453l1.4336.4.8232,4.01s.1221,2.5683.2168,5.2666C268.3691,119.9126,235.5635,123.8267,232.1982,102.4839Z"/><path class="cls-20" d="M245.7793,96.3105a3.4275,3.4275,0,0,0,3.0991,2.2124c2.8111-.0717,5.7193-.1469,5.7193-.1469a4.5132,4.5132,0,0,0-4.6485-3.5176l-3.7549.0957-.896.0239-3.7563.0952a4.5153,4.5153,0,0,0-4.4629,3.7515s2.9087-.0742,5.7188-.1465A3.4206,3.4206,0,0,0,245.7793,96.3105Z"/><path class="cls-32" d="M244.2378,90.41s-1.7568.9482-1.97,1.9419.811,1.5293,1.8154,1.059S245.1133,89.9106,244.2378,90.41Z"/><path class="cls-14" d="M228.2422,150.1392a.9534.9534,0,1,0-.9526-.9532A.9549.9549,0,0,0,228.2422,150.1392Z"/><path class="cls-14" d="M255.2188,151.5942a.9536.9536,0,1,0-.9532-.9536A.9566.9566,0,0,0,255.2188,151.5942Z"/><path class="cls-33" d="M210.6948,175.9429s-.09-.6949-.332-2.5728c-.7412-5.709,12.5884-3.3545,15.478-3.4512,14.4658-.4892,12.5391-18.9472-6.5185-13.8989C209.4009,158.6489,202.5347,170.9717,210.6948,175.9429Z"/><path class="cls-34" d="M208.4839,164.6q-.2835.534-.5137,1.0767l-.0176,1.6635a9.6252,9.6252,0,0,0-.8711,2.2876,7.62,7.62,0,0,0,.2178,1.9,11.2026,11.2026,0,0,1,.1655-1.2934c.0191-.107.043-.2129.0669-.3189l1.0459.586a.2509.2509,0,1,0,.2447-.438l-1.1641-.65a8.8742,8.8742,0,0,1,.7568-1.8716l.0162-.03a8.343,8.343,0,0,1,.6411-.9951L210.8,167.98a.2511.2511,0,1,0,.3262-.3818l-1.7437-1.4751a9.4733,9.4733,0,0,1,1.0508-1.0674c.1987-.1729.4058-.3379.6177-.4971a11.8367,11.8367,0,0,1,1.124-.7363l2.5342,2.5615a.2512.2512,0,0,0,.3564-.354l-2.4321-2.46a16.7132,16.7132,0,0,1,3.3516-1.2944l.06-.0156,4.458,4.2051a.2515.2515,0,0,0,.3452-.3658l-4.2265-3.9877a25.9521,25.9521,0,0,1,3.104-.5416l.0141-.0014c.6812-.0781,1.3682-.1328,2.0567-.167.66.5225,5.4424,4.3052,6.0078,4.6943a.251.251,0,0,0,.2847-.4135c-.4878-.3355-4.1368-3.2164-5.521-4.3111a40.26,40.26,0,0,1,8.4336.6748.2514.2514,0,1,0,.0932-.4941,40.38,40.38,0,0,0-5.0659-.6236l2.3086-2.663a.2514.2514,0,1,0-.38-.3287l-2.5644,2.96c-1.1514-.0512-2.333-.0561-3.5152-.0005q-.8679.0389-1.7358.125l2.1684-4.1093a.2506.2506,0,1,0-.4438-.233l-2.3257,4.4078a25.2675,25.2675,0,0,0-3.6885.705q-.4878.1341-.9614.2891l.7485-3.3721a.251.251,0,0,0-.49-.1084l-.8125,3.6739a15.5111,15.5111,0,0,0-2.227,1.0092l-.023.0132c-.2983.1675-.5864.3433-.8657.53l.2471-1.8984a.2521.2521,0,0,0-.5-.0645l-.3047,2.36c-.1919.1455-.3789.2968-.5591.4536a9.6387,9.6387,0,0,0-1.64,1.8286Z"/><path class="cls-33" d="M180.522,165.7891s.6421-.2832,2.3725-1.0489c5.2647-2.3261-3.6582-12.5044-5.0722-15.0254-7.083-12.6235,9.7011-20.5439,15.2636-1.6308C195.9819,157.9312,189.0044,170.1909,180.522,165.7891Z"/><path class="cls-34" d="M191.3691,161.8008c-.206.3452-.4257.6787-.6562.9971l-1.4131.8774a9.5631,9.5631,0,0,1-1.5049,1.93,7.5656,7.5656,0,0,1-1.7363.7993,11.3806,11.3806,0,0,0,1.02-.8115q.1216-.1107.2378-.2227l-1.0439-.5923a.25.25,0,0,1,.2465-.4355l1.1617.66a8.868,8.868,0,0,0,1.207-1.6186l.0176-.03a8.4042,8.4042,0,0,0,.519-1.0625l-2.1484-.7207a.2509.2509,0,0,1,.16-.4756l2.1646.7251a9.17,9.17,0,0,0,.3672-1.4512c.0459-.26.08-.5219.1045-.7876a11.3038,11.3038,0,0,0,.0478-1.3418l-3.5039-.8393a.2511.2511,0,1,1,.1192-.4878l3.3632.8052a16.65,16.65,0,0,0-.63-3.5376l-.0186-.06-5.9062-1.6323a.2515.2515,0,1,1,.1337-.4849l5.6006,1.5479a25.8271,25.8271,0,0,0-1.146-2.9351l-.0053-.0132c-.2876-.624-.5972-1.24-.9234-1.8462-.7881-.2934-6.5029-2.4213-7.13-2.7026a.2513.2513,0,0,1,.2071-.458c.5385.2432,4.8955,1.87,6.5483,2.4858a40.2765,40.2765,0,0,0-4.95-6.8623.2519.2519,0,0,1,.3755-.3359,40.5856,40.5856,0,0,1,3.1587,4.0093l1.0811-3.355a.2515.2515,0,0,1,.4785.1548l-1.2022,3.727c.6421.958,1.2569,1.9659,1.8233,3.0059.2778.5093.5415,1.0273.7929,1.5493l2.3887-3.9849a.2515.2515,0,0,1,.4312.2588l-2.5645,4.2744a25.5061,25.5061,0,0,1,1.31,3.52c.0923.3237.1748.6479.25.9712l2.4961-2.3872a.2509.2509,0,1,1,.3471.3623l-2.72,2.601a15.6007,15.6007,0,0,1,.292,2.4263v.0278c.0112.34.0112.6792-.0054,1.0137l1.4971-1.1958a.2514.2514,0,0,1,.3135.3931l-1.8609,1.4863c-.0249.2388-.0576.4776-.0981.7119a9.6747,9.6747,0,0,1-.7119,2.3511Z"/><path class="cls-35" d="M180.5669,164.7349s.7495.1616,2.7778.5971c6.1646,1.3252,4.8008-13.4394,5.168-16.5849,1.8433-15.7471,21.8179-11.9727,14.582,8.374C199.3281,167.7148,185.2554,174.0942,180.5669,164.7349Z"/><path class="cls-33" d="M192.75,168.1763q-.61.2607-1.2222.4638l-1.8193-.1318a10.4858,10.4858,0,0,1-2.5737.7437,8.302,8.302,0,0,1-2.0562-.41,11.8,11.8,0,0,0,1.4273-.0635c.1186-.0122.2378-.0273.3535-.0434l-.544-1.1963a.2744.2744,0,1,1,.5-.2261l.605,1.33a9.7654,9.7654,0,0,0,2.1114-.6582l.0327-.0152a9.2486,9.2486,0,0,0,1.146-.6084l-1.4405-2.02a.2745.2745,0,1,1,.4463-.32l1.4531,2.0351a10.1838,10.1838,0,0,0,1.26-1.05q.3084-.3016.5972-.6308a12.0951,12.0951,0,0,0,.9052-1.1587l-2.5654-2.9976a.275.275,0,1,1,.418-.3574L194.25,163.74a18.1925,18.1925,0,0,0,1.7158-3.5424l.023-.064-4.1861-5.2471a.2755.2755,0,1,1,.4307-.3437l3.97,4.9751a28.2545,28.2545,0,0,0,.8711-3.3409l.0039-.0146c.1485-.7358.2691-1.4829.3687-2.2305-.5108-.7666-4.207-6.33-4.5816-6.9819a.2751.2751,0,0,1,.4776-.273c.3223.5625,3.1367,4.8052,4.2065,6.4166a44.1925,44.1925,0,0,0,.0274-9.2676.2747.2747,0,1,1,.5464-.0572,43.7989,43.7989,0,0,1,.2226,5.586l3.1167-2.2783a.2754.2754,0,1,1,.3247.4448l-3.4629,2.5307c-.0488,1.2623-.1494,2.5533-.3174,3.8379-.082.63-.18,1.2593-.2944,1.8828l4.6817-1.9951a.2752.2752,0,1,1,.2158.5064l-5.024,2.14a27.4815,27.4815,0,0,1-1.103,3.9629q-.189.5193-.4028,1.0225l3.749-.51a.2743.2743,0,1,1,.0752.5435l-4.085.5561a16.9428,16.9428,0,0,1-1.3027,2.3384l-.0171.0254q-.3127.4644-.6567.896l2.0967-.0967a.2749.2749,0,1,1,.0249.5493l-2.606.1211c-.1758.1958-.3579.3863-.5454.5689a10.5545,10.5545,0,0,1-2.144,1.6255Z"/><path class="cls-33" d="M158.7563,174.4922s-.7841.4438-2.9033,1.6411c-6.4409,3.6421-10.0815-13.3726-11.5932-16.7661-7.5752-16.9932-28.627-5.7739-13.4014,14.4834C138.7871,184.396,156.7813,186.6157,158.7563,174.4922Z"/><path class="cls-35" d="M146.3149,182.6108q.7749.08,1.5328.0918l1.99-.7841a12.343,12.343,0,0,0,3.144-.0689,9.7445,9.7445,0,0,0,2.1582-1.1777,14.1087,14.1087,0,0,1-1.6206.4277c-.1367.0283-.2749.0527-.41.0757l.19-1.53a.322.322,0,1,0-.6392-.0786l-.2109,1.7017a11.5193,11.5193,0,0,1-2.5972.0019l-.042-.0044a11.1545,11.1545,0,0,1-1.496-.2812l.9077-2.7671a.3254.3254,0,0,0-.2071-.4077.3207.3207,0,0,0-.4052.2065l-.9146,2.7876a12.0937,12.0937,0,0,1-1.78-.7349q-.4511-.2307-.8906-.497a15.039,15.039,0,0,1-1.42-.981l1.8262-4.2568a.3226.3226,0,0,0-.5933-.2534l-1.7534,4.0869a21.3963,21.3963,0,0,1-3.1626-3.3672l-.0488-.064,2.8525-7.3418a.3232.3232,0,0,0-.1831-.4189.327.327,0,0,0-.42.1836l-2.7031,6.9629a33.2017,33.2017,0,0,1-2.1465-3.4361l-.0083-.0161c-.4229-.7729-.82-1.5659-1.1944-2.3686.3038-1.0381,2.4966-8.562,2.6875-9.4239a.322.322,0,1,0-.6289-.1386c-.165.7417-1.8325,6.4809-2.4663,8.6582a51.6148,51.6148,0,0,1-3.2734-10.37.3237.3237,0,0,0-.6348.1275,51.9171,51.9171,0,0,0,1.7075,6.334l-4.288-1.46a.3226.3226,0,1,0-.209.61l4.7661,1.6245c.4946,1.396,1.06,2.8052,1.6987,4.1875q.4666,1.015.9883,2.0049l-5.9424-.5952a.3224.3224,0,1,0-.0635.6416l6.375.6391a32.4454,32.4454,0,0,0,2.6216,4.0508q.3948.5178.8091,1.0049l-4.376.7412a.322.322,0,0,0,.1055.6352l4.769-.8071a20.02,20.02,0,0,0,2.2789,2.1626l.0283.022q.5134.4116,1.0488.7744l-2.3823.6245a.3231.3231,0,0,0,.164.625l2.961-.7768q.3976.2373.8091.4453a12.4016,12.4016,0,0,0,2.97,1.0713Z"/><path class="cls-36" d="M205.7368,161.897s2.1431-1.92,2.1-4.043-1.1137-2.7681-1.1279-3.3184,1.0767-1.4687,2.6025-1.2187.563,1.5024.857,3.6914.8545,4.0767,2.3491,5.2124S205.7368,161.897,205.7368,161.897Z"/><path class="cls-35" d="M206.7114,154.4717c.0659-.5542,1.1319-1.3955,2.6-1.1548.4649.0757.6988.2456.8072.5059-.0547.4824-1.1045,1.0717-2.1646,1.21C206.7476,155.19,206.7124,154.51,206.7114,154.4717Z"/><path class="cls-37" d="M208.6714,162.9531a6.4826,6.4826,0,0,1,1.4746-.6469c11.0176-3.4986,17.3428,5.2685,15.9648,13.5659-1.2558,7.5747-7.6425,12.7-17.4394,10.1338Z"/><path class="cls-38" d="M208.6714,162.2061a4.6015,4.6015,0,0,1,1.164-.69c8.6988-3.7329,13.6915,5.6216,12.6041,14.4761-.9927,8.082-6.0332,13.55-13.7681,10.8125Z"/><path class="cls-37" d="M208.6714,162.9531a6.4277,6.4277,0,0,0-1.4732-.6469c-11.0185-3.4986-17.3437,5.2685-15.9663,13.5659,1.2578,7.5747,7.6441,12.7,17.44,10.1338Z"/><path class="cls-38" d="M208.6714,162.2061a4.5736,4.5736,0,0,0-1.1626-.69c-8.6987-3.7329-13.6924,5.6216-12.605,14.4761.9922,8.082,6.0352,13.55,13.7676,10.8125Z"/><path class="cls-39" d="M213.5605,185.7881c5.4332-6.5474,5.8809-25.1231-4.8891-25.0215-10.4673-.0986-10.3389,17.4492-5.3335,24.4448C205.8779,188.76,210.7031,189.2314,213.5605,185.7881Z"/><path class="cls-36" d="M162.2983,150.7407s3.4341-3.0791,3.3638-6.4809c-.0683-3.4029-1.7832-4.4375-1.8071-5.32s1.7256-2.3554,4.1719-1.9536.9028,2.4082,1.3735,5.918,1.3686,6.5337,3.7661,8.355C175.5605,153.0806,162.2983,150.7407,162.2983,150.7407Z"/><path class="cls-35" d="M163.8608,138.8379c.1055-.8892,1.8125-2.2383,4.1661-1.8516.7446.1211,1.12.3936,1.2934.8106-.09.7734-1.77,1.7173-3.4707,1.94C163.9155,139.99,163.8628,138.8984,163.8608,138.8379Z"/><path class="cls-40" d="M167.0029,152.4326a10.2976,10.2976,0,0,1,2.3614-1.0366c17.6626-5.6089,27.8022,8.4453,25.5937,21.7476-2.0156,12.1416-12.2524,20.3569-27.9551,16.2436Z"/><path class="cls-41" d="M167.0029,151.2349a7.3743,7.3743,0,0,1,1.8643-1.1065c13.9448-5.9829,21.9482,9.0117,20.206,23.2051-1.5913,12.957-9.6738,21.7227-22.07,17.3335Z"/><path class="cls-40" d="M167.0029,152.4326a10.3517,10.3517,0,0,0-2.3623-1.0366c-17.6626-5.6089-27.8012,8.4453-25.5947,21.7476,2.0156,12.1416,12.2539,20.3569,27.957,16.2436Z"/><path class="cls-41" d="M167.0029,151.2349a7.4062,7.4062,0,0,0-1.8652-1.1065c-13.9439-5.9829-21.9487,9.0117-20.2056,23.2051,1.5918,12.957,9.6734,21.7227,22.0708,17.3335Z"/><path class="cls-42" d="M174.84,189.0386c8.7085-10.4966,9.4258-40.274-7.8374-40.1114-16.78-.1567-16.5747,27.9722-8.55,39.1861C162.5215,193.8013,170.26,194.5581,174.84,189.0386Z"/><path class="cls-36" d="M167.7212,165.7871a4.6808,4.6808,0,0,0,1.5361-2.958c-.0342-1.5508-.8144-2.0234-.8257-2.4263s.7862-1.0737,1.9029-.8906.4126,1.0986.6264,2.7a5.416,5.416,0,0,0,1.7178,3.811C173.7725,166.8545,167.7212,165.7871,167.7212,165.7871Z"/><path class="cls-35" d="M168.4341,160.3564a1.6224,1.6224,0,0,1,1.9-.8442c.34.0557.5107.1792.5893.37-.04.3526-.8071.7832-1.5815.8853C168.459,160.8823,168.4341,160.3848,168.4341,160.3564Z"/><path class="cls-43" d="M169.8672,166.5591a4.7406,4.7406,0,0,1,1.0776-.4732c8.0586-2.5586,12.6836,3.8521,11.6763,9.9214-.919,5.5391-5.59,9.2876-12.7539,7.41Z"/><path class="cls-44" d="M169.8672,166.0127a3.3544,3.3544,0,0,1,.8516-.5044c6.3618-2.73,10.0131,4.1113,9.2167,10.5864-.7251,5.91-4.4116,9.91-10.0683,7.9068Z"/><path class="cls-43" d="M169.8672,166.5591a4.6865,4.6865,0,0,0-1.0767-.4732c-8.0591-2.5586-12.6831,3.8521-11.6772,9.9214.92,5.5391,5.5893,9.2876,12.7539,7.41Z"/><path class="cls-44" d="M169.8672,166.0127a3.3621,3.3621,0,0,0-.8506-.5044c-6.36-2.73-10.0132,4.1113-9.2178,10.5864.7261,5.91,4.4126,9.91,10.0684,7.9068Z"/><path class="cls-45" d="M173.4438,183.2588c3.9742-4.7886,4.3-18.3731-3.5766-18.2988-7.6548-.0718-7.5606,12.7607-3.8994,17.8764A4.6113,4.6113,0,0,0,173.4438,183.2588Z"/><path class="cls-46" d="M168.8179,176.3662h58.8432a2.9087,2.9087,0,0,1,2.9087,2.9087v20.6973a2.9077,2.9077,0,0,1-2.9077,2.9077H168.8188a2.9077,2.9077,0,0,1-2.9077-2.9077V179.273A2.9068,2.9068,0,0,1,168.8179,176.3662Z"/><path class="cls-47" d="M191.0718,176.3662h7.75a14.0638,14.0638,0,0,1,4.8262,8.709c2,15.314-12.5337,14.9512-11.4546,3.6636C192.4082,186.4849,195.58,176.3662,191.0718,176.3662Z"/><path class="cls-48" d="M133.9224,176.3662h37.8042a2.9077,2.9077,0,0,1,2.9077,2.9077v20.6983a2.9077,2.9077,0,0,1-2.9077,2.9077H133.9224a2.9068,2.9068,0,0,1-2.9068-2.9068v-20.7A2.9068,2.9068,0,0,1,133.9224,176.3662Z"/><path class="cls-49" d="M178.0542,178.9307h5.39a.7686.7686,0,0,1,.7686.7686v6.5883a.769.769,0,0,1-.769.769h-5.3887a.77.77,0,0,1-.77-.77V179.7A.77.77,0,0,1,178.0542,178.9307Z"/><path class="cls-20" d="M177.8418,188.061h5.8164a.5564.5564,0,0,1,.5542.5562h0a.5562.5562,0,0,1-.5542.5552h-5.8164a.5577.5577,0,0,1-.5571-.5552h0A.5579.5579,0,0,1,177.8418,188.061Z"/><path class="cls-49" d="M177.8418,190.2217h5.8154a.5552.5552,0,0,1,.5552.5552v.0009a.5557.5557,0,0,1-.5557.5557h-5.8173a.5547.5547,0,0,1-.5547-.5547v0a.5571.5571,0,0,1,.5571-.5571Z"/><path class="cls-50" d="M160.1548,202.88h-22.26a3.3882,3.3882,0,0,1,3.3784-3.3794h15.503a3.388,3.388,0,0,1,3.3789,3.3794Z"/><path class="cls-16" d="M167.7554,202.88h0a3.3882,3.3882,0,0,0-3.3784-3.3794H148.874a3.3883,3.3883,0,0,0-3.3789,3.3794h22.26Z"/><path class="cls-51" d="M184.9209,202.88h15.4619a3.39,3.39,0,0,0-3.3794-3.3794H188.3a3.3886,3.3886,0,0,0-3.3789,3.3794Z"/><path class="cls-16" d="M180.6147,202.88h0a3.3874,3.3874,0,0,1,3.3775-3.3794h8.3193a3.3891,3.3891,0,0,1,3.38,3.3794H180.6147Z"/><path class="cls-51" d="M208.9551,202.88h15.46a3.3892,3.3892,0,0,0-3.3789-3.3794h-8.7041a3.3889,3.3889,0,0,0-3.3774,3.3794Z"/><path class="cls-16" d="M204.6465,202.88h0a3.389,3.389,0,0,1,3.3794-3.3794h8.3183a3.3889,3.3889,0,0,1,3.3789,3.3794H204.6465Z"/><path class="cls-48" d="M221.375,178.9307h5.8165a.5556.5556,0,0,1,.5556.5556v.001a.5552.5552,0,0,1-.5552.5552H221.374a.5552.5552,0,0,1-.5552-.5552v0A.5562.5562,0,0,1,221.375,178.9307Z"/><path class="cls-48" d="M223.2744,181.0908h3.9165a.5562.5562,0,0,1,.5562.5562v0a.5556.5556,0,0,1-.5556.5556H223.273a.5552.5552,0,0,1-.5552-.5552v0A.5566.5566,0,0,1,223.2744,181.0908Z"/><path class="cls-48" d="M221.3754,181.0908h.002a.5542.5542,0,0,1,.5542.5542v.0034a.5542.5542,0,0,1-.5542.5542h-.0034a.5552.5552,0,0,1-.5552-.5552v0A.5566.5566,0,0,1,221.3754,181.0908Z"/><path class="cls-46" d="M133.7495,178.9307h5.8165a.5556.5556,0,0,1,.5556.5556v0a.5562.5562,0,0,1-.5562.5562h-5.8173a.5552.5552,0,0,1-.5552-.5552v0a.5566.5566,0,0,1,.5566-.5566Z"/><path class="cls-46" d="M135.65,181.0908h3.9156a.5556.5556,0,0,1,.5556.5556v0a.5562.5562,0,0,1-.5562.5562H135.649a.5552.5552,0,0,1-.5552-.5552v0a.5566.5566,0,0,1,.5566-.5566Z"/><path class="cls-50" d="M133.75,181.0908h0a.5574.5574,0,0,0-.5566.5557v0a.5571.5571,0,0,0,.5566.5556h0a.5573.5573,0,0,0,.5562-.5556v0A.5577.5577,0,0,0,133.75,181.0908Z"/><path class="cls-35" d="M190.4063,176.3662H192.44c4.5093,0,1.3374,10.1187,1.1216,12.3726-1.0786,11.2876,13.4546,11.65,11.4551-3.6636C203.9736,177.1016,195.0913,170.5264,190.4063,176.3662Z"/><path class="cls-33" d="M199.4424,175.79c-.2569-.1822-.5186-.3521-.7842-.5074l-1.2915-.1806a7.4757,7.4757,0,0,0-1.69-.9068,5.8894,5.8894,0,0,0-1.4965-.0229,8.5965,8.5965,0,0,1,.9868.2593c.081.0268.1616.0546.2412.083l-.56.7544a.1968.1968,0,0,0,.04.2753.1991.1991,0,0,0,.2759-.0415l.622-.8388a7.0364,7.0364,0,0,1,1.3785.7763l.0209.0166a6.6392,6.6392,0,0,1,.7085.5972l-1.312,1.1963a.197.197,0,0,0,.2657.291l1.3208-1.2056a7.2426,7.2426,0,0,1,.7246.9239c.1132.1719.2207.3481.3222.53a8.7345,8.7345,0,0,1,.459.9472l-2.2441,1.7105a.1966.1966,0,0,0,.2387.3125l2.1563-1.6426a13.1185,13.1185,0,0,1,.668,2.7349l.0063.0483-3.7153,3.04a.1966.1966,0,1,0,.2485.3047l3.5235-2.8818a20.2689,20.2689,0,0,1,.1084,2.4663v.0117c-.0083.5371-.0347,1.0767-.0777,1.6143-.4726.46-3.8935,3.7939-4.2534,4.1933a.1967.1967,0,0,0,.2925.2632c.3095-.3447,2.9155-2.8892,3.9067-3.8545a31.603,31.603,0,0,1-1.375,6.4844.1974.1974,0,0,0,.3755.1221,31.8436,31.8436,0,0,0,.9941-3.8731l1.836,2.062a.1969.1969,0,1,0,.2939-.2622l-2.04-2.29c.1567-.89.2778-1.8081.3555-2.732.0376-.4521.063-.9067.0766-1.3593l2.9737,2.0981a.1987.1987,0,0,0,.2739-.0478.1951.1951,0,0,0-.0479-.274l-3.1914-2.2519a19.5771,19.5771,0,0,0-.1748-2.936c-.0356-.2613-.0786-.52-.1274-.7754l2.5449.92a.196.196,0,0,0,.1333-.3687l-2.7734-1.0024a11.8883,11.8883,0,0,0-.5591-1.8311l-.0083-.02c-.0986-.247-.207-.49-.3237-.7251l1.4506.3828a.1967.1967,0,1,0,.1006-.38l-1.8027-.4756c-.0938-.1636-.1934-.3237-.2969-.48a7.6455,7.6455,0,0,0-1.2549-1.459Z"/><path class="cls-35" d="M155.42,176.3662h-3.335c-7.3994,0-2.1933,16.6021-1.8393,20.3008,1.7685,18.521-22.0791,19.1157-18.7949-6.0107C133.1621,177.5737,147.7339,166.7842,155.42,176.3662Z"/><path class="cls-33" d="M140.5947,175.4209q.6343-.4482,1.29-.8325l2.1172-.2974a12.2883,12.2883,0,0,1,2.7724-1.4868,9.7009,9.7009,0,0,1,2.4561-.0386,14.3753,14.3753,0,0,0-1.62.4263c-.1324.0425-.2647.09-.3951.1367l.92,1.2378a.3222.3222,0,0,1-.5181.3833l-1.022-1.3769a11.4442,11.4442,0,0,0-2.26,1.2753l-.0357.0249a11.1393,11.1393,0,0,0-1.1645.9815l2.1518,1.9614a.3227.3227,0,0,1-.434.4776l-2.1666-1.9776a11.9247,11.9247,0,0,0-1.1875,1.5152q-.2826.4226-.5307.871a14.7381,14.7381,0,0,0-.7529,1.5542l3.6835,2.8057a.3226.3226,0,0,1-.3916.5127l-3.5385-2.6938a21.4978,21.4978,0,0,0-1.0957,4.4873l-.0113.08,6.0987,4.9873a.3232.3232,0,0,1-.41.5l-5.7808-4.729a33.1845,33.1845,0,0,0-.1767,4.0464v.02c.0117.8808.0566,1.7661.1255,2.6489.7759.7544,6.3882,6.2246,6.9785,6.8808a.3225.3225,0,0,1-.48.4307c-.5083-.5654-4.7842-4.7407-6.4072-6.3242a51.6662,51.6662,0,0,0,2.2524,10.6392.3226.3226,0,1,1-.6133.2,51.8572,51.8572,0,0,1-1.6328-6.3544l-3.0132,3.3828a.3226.3226,0,1,1-.4814-.43l3.3481-3.7583c-.2548-1.459-.4565-2.9649-.582-4.481-.062-.7422-.1035-1.4883-.1269-2.2319l-4.8794,3.4424a.3224.3224,0,0,1-.37-.5279l5.2349-3.6928a32.3114,32.3114,0,0,1,.2881-4.8169c.06-.43.13-.8535.2075-1.2735l-4.1733,1.51a.322.322,0,1,1-.2178-.606l4.5464-1.645a19.9419,19.9419,0,0,1,.9194-3.0039l.0137-.0327q.2439-.6093.5317-1.19l-2.3813.6279a.3225.3225,0,1,1-.1631-.624l2.9585-.7808c.1523-.2681.3154-.5322.4839-.7871a12.4766,12.4766,0,0,1,2.06-2.3936Z"/><path class="cls-35" d="M313.5322,200.1841a27.4212,27.4212,0,1,0-27.42-27.4209A27.4751,27.4751,0,0,0,313.5322,200.1841Z"/><path class="cls-33" d="M313.5322,200.1841c12.6143,0,22.8994-12.3179,22.8994-27.4209s-10.2851-27.4214-22.8994-27.4214c-12.61,0-22.8974,12.3179-22.8974,27.4214S300.9219,200.1841,313.5322,200.1841Z"/><path class="cls-35" d="M313.5322,200.1841c9.6866,0,17.5879-12.3179,17.5879-27.4209s-7.9013-27.4214-17.5879-27.4214-17.5869,12.3179-17.5869,27.4214S303.8467,200.1841,313.5322,200.1841Z"/><path class="cls-33" d="M313.5322,200.1841c5.8643,0,10.6465-12.3179,10.6465-27.4209s-4.7822-27.4214-10.6465-27.4214c-5.8623,0-10.6455,12.3179-10.6455,27.4214S307.67,200.1841,313.5322,200.1841Z"/><path class="cls-35" d="M313.5322,200.1841c3.4834,0,6.3213-12.3179,6.3213-27.4209s-2.8379-27.4214-6.3213-27.4214c-3.4814,0-6.32,12.3179-6.32,27.4214S310.0508,200.1841,313.5322,200.1841Z"/><path class="cls-33" d="M293.3389,144.3086c-.1963,2.2485-1.709,6.8022-2.5625,9.2344-1.1846,3.3789-2.7246,3.2558-3.0987-.2486-.2675-2.521-.6855-7.23-.35-9.4673C287.9736,139.5,293.7188,139.96,293.3389,144.3086Z"/><path class="cls-52" d="M290.1279,147.6714c.2793,2.2407-.2392,7.0107-.5625,9.5669-.4482,3.5532-1.9814,3.7568-3.081.4092-.793-2.4068-2.1914-6.9224-2.336-9.1807C283.8711,144.1006,289.584,143.34,290.1279,147.6714Z"/><path class="cls-35" d="M289.7656,147.8022c-.7324,2.1348-1.1924,6.9117-1.3984,9.48-.2852,3.57,1.1738,4.0811,2.9336,1.0283,1.2666-2.1962,3.5556-6.332,4.1562-8.5136C296.6191,145.58,291.1787,143.6719,289.7656,147.8022Z"/><path class="cls-41" d="M280.0332,163.2212c-.7178,5.0908.8428,15.9145,1.7979,21.7163,1.3261,8.06,5.5488,8.4946,8.4892.8721,2.1133-5.4844,5.8438-15.7647,6.1807-20.8955C297.1523,154.9907,281.4131,153.3721,280.0332,163.2212Z"/><path class="cls-40" d="M280.0332,163.2212c-.0547.3843-.0957.8022-.125,1.2485.4961-.0888.9922-.1626,1.4395-.2319a.1481.1481,0,0,0,.04-.0112.1409.1409,0,0,0,.04,0c.0186-.003.05-.0074.0664-.0108a29.1725,29.1725,0,0,1,3.5567-.3574c.1269-.0132.3-.0059.4326-.01.293-.0073.6016-.0068.8916-.0322.4795-.042.7178.0791,1.0518-.3511.4-.5424-.3516-.8789-.7618-1.0483a4.6376,4.6376,0,0,0-1.0546-.2881c-.1661-.0263-.3291-.0454-.4952-.06a18.0826,18.0826,0,0,0-3.9189.12c-.0195.001-.0518.0058-.0733.0093a.1665.1665,0,0,0-.041.0122.1783.1783,0,0,0-.0459.0014c-.2822.0474-.5634.1006-.8418.1592a8.1337,8.1337,0,0,0-.1611.8506Zm.5537,13.0986c.083.6851.17,1.3653.2588,2.0337l.0078-.001c1.0742-.1308,2.1211-.1616,3.1719-.2768.5957-.0786,1.0195-.1445,1.085-.8008.0722-.687-.4385-.8174-1.0381-.9238a15.0113,15.0113,0,0,0-3.4287-.0381.0882.0882,0,0,0-.0342.0088l-.0225-.002Zm9.3467,10.4278c.1289-.2974.26-.6094.3867-.938q.1788-.4622.3721-.9707l-.125-.0381a.0766.0766,0,0,0-.03-.0054h0a.0911.0911,0,0,0-.0293-.0137,13.6341,13.6341,0,0,0-3.2656-.5229c-.5283-.0049-1.5039-.0327-1.5762.6792-.0722.6894.83.8848,1.336,1.0293.9931.2637,1.9218.4526,2.914.7783l.0176.002Zm4.9609-14.2032c.1846-.6416.3623-1.2749.5235-1.8916a12.5722,12.5722,0,0,0-2.3946-1.2348.1959.1959,0,0,0-.0488-.0113.1728.1728,0,0,0-.043-.0214,21.7688,21.7688,0,0,0-5.0371-.9034c-.45-.03-.9043-.0595-1.3535-.0708-.5156-.0053-2.43-.1718-2.5478.606-.042.7837,1.8662,1.0107,2.3711,1.1108.4453.0825.8974.1275,1.34.2071a20.7526,20.7526,0,0,1,4.5449.9843.122.122,0,0,0,.04.0074.105.105,0,0,0,.0351.02,18.5828,18.5828,0,0,1,2.57,1.1982Zm-4.7177-8.0122a4.7455,4.7455,0,0,0,1.1347.2823.0166.0166,0,0,0,.0117-.0054.0207.0207,0,0,0,.0137.0068,5.0213,5.0213,0,0,0,1.1914-.0488c.4-.125.4483-.4507.4863-.8179.0372-.3721.0557-.6968-.32-.8989a5.18,5.18,0,0,0-1.1591-.2754l-.0118.0049-.0107-.0069a4.8182,4.8182,0,0,0-1.1406.0455c-.3643.1235-.41.479-.4571.8115-.0517.3535-.0947.6938.2618.9023Zm-2.1729,13.9068a2.3778,2.3778,0,0,0,.67.2334l.0078-.0044.0059.0053a2.325,2.325,0,0,0,.7041-.0913c.3281-.1572.3789-.498.4121-.8247a.8987.8987,0,0,0-.2363-.8911,2.368,2.368,0,0,0-.67-.2334l-.0079.0059-.0058-.0069a2.3673,2.3673,0,0,0-.7041.0918c-.3272.1577-.3779.4981-.4131.8243A.9008.9008,0,0,0,288.0039,178.439Z"/><path class="cls-33" d="M280.7012,174.4922l-2.9,1.6411c-6.4414,3.6421-10.083-13.3726-11.5938-16.7661-7.5771-16.9932-28.6284-5.7739-13.4023,14.4834C260.7324,184.396,278.7275,186.6157,280.7012,174.4922Z"/><path class="cls-35" d="M268.2617,182.6108q.7749.08,1.5322.0918l1.99-.7841a12.356,12.356,0,0,0,3.1455-.0689,9.73,9.73,0,0,0,2.1562-1.1777,14.0743,14.0743,0,0,1-1.62.4277c-.1377.0283-.2744.0527-.41.0757l.1914-1.53a.3228.3228,0,0,0-.6407-.0786l-.2119,1.7017a11.5143,11.5143,0,0,1-2.5966.0019l-.042-.0044a11.1281,11.1281,0,0,1-1.4952-.2812l.9063-2.7671a.3218.3218,0,1,0-.6113-.2012l-.9151,2.7876a12.0822,12.0822,0,0,1-1.7793-.7349c-.3017-.1538-.5976-.3188-.8906-.497a15.0323,15.0323,0,0,1-1.42-.981l1.8262-4.2568a.3233.3233,0,0,0-.5948-.2534l-1.7529,4.0869a21.4348,21.4348,0,0,1-3.1611-3.3672l-.05-.064,2.8535-7.3418a.3239.3239,0,0,0-.6035-.2353l-2.7061,6.9629a33.8728,33.8728,0,0,1-2.1455-3.4361l-.0068-.0161c-.4229-.7729-.82-1.5659-1.1944-2.3686.3028-1.0381,2.4971-8.562,2.6875-9.4239a.3225.3225,0,1,0-.63-.1386c-.166.7417-1.831,6.4809-2.4648,8.6582a51.7509,51.7509,0,0,1-3.2754-10.37.3228.3228,0,1,0-.6328.1275,51.6218,51.6218,0,0,0,1.707,6.334l-4.2881-1.46a.3225.3225,0,0,0-.2085.61l4.7652,1.6245c.4961,1.396,1.0605,2.8052,1.6972,4.1875q.4688,1.015.9893,2.0049l-5.9414-.5952a.3224.3224,0,1,0-.0635.6416l6.374.6391a32.4035,32.4035,0,0,0,2.6241,4.0508c.2607.3452.5322.6792.8086,1.0049l-4.3789.7412a.3221.3221,0,0,0,.1074.6352l4.7685-.8071a20.0493,20.0493,0,0,0,2.2774,2.1626l.0293.022q.5127.4116,1.0488.7744l-2.3818.6245a.3231.3231,0,1,0,.164.625l2.959-.7768q.4014.2373.8115.4453a12.4038,12.4038,0,0,0,2.97,1.0713Z"/><path class="cls-33" d="M274.9365,146.791c.2266,2.2456-.414,7.0015-.8027,9.5484-.5371,3.541-2.0742,3.706-3.0908.3325-.7305-2.4282-2.0166-6.9766-2.1016-9.2373C268.7734,143.062,274.5039,142.4473,274.9365,146.791Z"/><path class="cls-52" d="M272.4072,150.6919c.6914,2.1475,1.0674,6.9321,1.2246,9.5044.2178,3.5752-1.2509,4.0591-2.9541.9746-1.2246-2.2188-3.4375-6.396-3.998-8.5879C265.5957,148.3438,271.0684,146.5366,272.4072,150.6919Z"/><path class="cls-35" d="M272.0742,150.8877c-.3232,2.2339.11,7.0122.3867,9.5742.3838,3.561,1.9112,3.793,3.0743.4668.8359-2.3945,2.3164-6.8823,2.5019-9.1377C278.3965,147.43,272.6992,146.5659,272.0742,150.8877Z"/><path class="cls-42" d="M265.3721,167.8442c.2441,5.1358,3.7842,15.4825,5.8,21.0049,2.8008,7.6743,7.0312,7.3174,8.5039-.7178,1.0605-5.7822,2.8164-16.5771,2.1953-21.68C280.6689,156.5791,264.9033,157.9106,265.3721,167.8442Z"/><path class="cls-53" d="M265.3721,167.8442c.0195.3887.0576.8077.1113,1.2515.4717-.18.9434-.3442,1.3721-.4946a.2806.2806,0,0,0,.0371-.02.1112.1112,0,0,0,.039-.0083.4073.4073,0,0,0,.0625-.0225,29.48,29.48,0,0,1,3.43-1.0112c.12-.0367.295-.0616.4219-.0894.2871-.063.5908-.1186.8731-.1973.4628-.13.7167-.0566.9658-.5415.292-.6064-.5078-.7973-.9424-.8881a4.6847,4.6847,0,0,0-1.09-.087c-.1679.0049-.331.0166-.5.0332a18.1412,18.1412,0,0,0-3.8261.8448c-.02.0049-.0508.0166-.07.0234a.1338.1338,0,0,0-.0391.02.17.17,0,0,0-.0449.0093q-.4014.1487-.7979.312c-.0136.2818-.0146.57-.0019.8657Zm2.9785,12.7681c.208.6582.4209,1.31.6318,1.95l.0078-.002c1.03-.3271,2.0528-.5522,3.0645-.86.5713-.188.9736-.3311.9189-.9888-.0586-.6889-.5849-.7212-1.1923-.7148a15.0726,15.0726,0,0,0-3.377.5991.1038.1038,0,0,0-.0322.0147.0814.0814,0,0,0-.0215.0019Zm11.12,8.5127c.0732-.3174.1416-.6475.2051-.9937.06-.3256.1211-.6679.1855-1.0229l-.1289-.0156a.0729.0729,0,0,0-.0312.0019h0a.1067.1067,0,0,0-.0313-.0093,13.6432,13.6432,0,0,0-3.3066.0933c-.52.0928-1.4834.2466-1.4238.96.0585.6909.9834.7153,1.5048.7632,1.0274.0747,1.9746.0883,3.0078.2241l.0186,0Zm2.2383-14.8779c.0625-.6656.1172-1.32.1631-1.9556a12.5088,12.5088,0,0,0-2.584-.769.1927.1927,0,0,0-.0479-.0025.18.18,0,0,0-.0468-.0127,21.7743,21.7743,0,0,0-5.1172.0464c-.4473.0552-.8985.1109-1.3428.1831-.51.09-2.4209.2818-2.3926,1.0684.1045.7778,2.0205.6469,2.5371.65.4532-.0015.9073-.041,1.3555-.045a20.7486,20.7486,0,0,1,4.6475.1236.1477.1477,0,0,0,.041,0,.1425.1425,0,0,0,.039.0122,18.5877,18.5877,0,0,1,2.7481.7Zm-6.125-6.9971a4.67,4.67,0,0,0,1.1689.0659l.01-.0063a.0306.0306,0,0,0,.0137.0044,5.0465,5.0465,0,0,0,1.1621-.27c.37-.1972.3564-.5263.3252-.8935-.0293-.3731-.0742-.6953-.48-.8242a5.1683,5.1683,0,0,0-1.1894-.0562.0184.0184,0,0,0-.0108.0068.0134.0134,0,0,0-.0127-.0039,4.7952,4.7952,0,0,0-1.1113.2559c-.335.1875-.3135.5469-.2979.8828.0147.3569.0362.6992.4229.8379Zm.4473,14.0684a2.3344,2.3344,0,0,0,.7031.1045l.0058-.0054.0069.0039a2.3225,2.3225,0,0,0,.6748-.22.9019.9019,0,0,0,.2529-.8872c-.0283-.3272-.0723-.668-.3984-.8316a2.302,2.302,0,0,0-.7012-.104l-.0059.0054-.0088-.0049a2.3009,2.3009,0,0,0-.6728.2207.8961.8961,0,0,0-.2529.8867C275.6621,180.8135,275.708,181.1553,276.0313,181.3184Z"/><path class="cls-33" d="M336.09,176.3838s-.0781-.6079-.291-2.2476c-.6474-4.9868,10.9971-2.9311,13.52-3.0151,12.6358-.4268,10.9522-16.55-5.6943-12.14C334.959,161.2773,328.9619,172.0405,336.09,176.3838Z"/><path class="cls-34" d="M334.1572,166.4746q-.2475.4665-.4482.9414l-.0156,1.4531a8.3818,8.3818,0,0,0-.7579,1.9981,6.4758,6.4758,0,0,0,.1875,1.6592,9.4645,9.4645,0,0,1,.1456-1.1289q.0249-.1407.0585-.2779l.9131.5108a.2192.2192,0,1,0,.2129-.3833l-1.0156-.5679a7.7107,7.7107,0,0,1,.6611-1.6348l.0127-.0263a7.4578,7.4578,0,0,1,.5606-.8692l1.5088,1.2783a.22.22,0,0,0,.2851-.3339l-1.5205-1.2881a7.9346,7.9346,0,0,1,.9151-.9331c.1748-.15.3544-.295.5419-.4336a9.8608,9.8608,0,0,1,.98-.6431l2.2129,2.2373a.2191.2191,0,1,0,.3106-.3091l-2.1241-2.1489a14.6245,14.6245,0,0,1,2.9278-1.13l.0537-.0141,3.8926,3.6723a.22.22,0,1,0,.3027-.3193l-3.6924-3.4824a22.3524,22.3524,0,0,1,2.7109-.4722l.0137-.0024c.5938-.0684,1.1953-.1158,1.7959-.1465.5752.4565,4.7529,3.7617,5.2471,4.1016a.2194.2194,0,0,0,.248-.3619c-.4248-.2929-3.6123-2.8095-4.8213-3.7651a35.19,35.19,0,0,1,7.3672.5884.2193.2193,0,1,0,.08-.4312,35.3353,35.3353,0,0,0-4.4248-.5449L351.5,160.94a.22.22,0,0,0-.332-.2876l-2.24,2.586c-1.0048-.045-2.0381-.0489-3.07,0-.5049.0229-1.0127.06-1.5156.1094l1.8936-3.5884a.22.22,0,0,0-.3887-.2046l-2.0293,3.8506a22.06,22.06,0,0,0-3.2217.6152c-.2852.0772-.5654.1626-.84.2529l.6523-2.9458a.22.22,0,0,0-.168-.2607.2169.2169,0,0,0-.26.1665l-.71,3.208a13.6018,13.6018,0,0,0-1.9453.8823l-.02.0113q-.39.22-.7568.4629l.2158-1.6587a.2191.2191,0,1,0-.4346-.0567l-.2686,2.0625c-.166.127-.3291.26-.4873.3965a8.4046,8.4046,0,0,0-1.4316,1.5967Z"/><path class="cls-36" d="M331.7588,164.1143s1.8711-1.6783,1.833-3.5318-.9717-2.4175-.9844-2.8984.94-1.2832,2.2735-1.0645.4912,1.312.748,3.2242.7461,3.5615,2.0508,4.5532S331.7588,164.1143,331.7588,164.1143Z"/><path class="cls-35" d="M332.61,157.6284a1.9393,1.9393,0,0,1,2.27-1.0088c.4062.0659.61.2144.7031.4414-.0469.4219-.9619.937-1.8906,1.0581C332.6406,158.2563,332.6123,157.6611,332.61,157.6284Z"/><path class="cls-37" d="M334.3232,165.0366a5.6543,5.6543,0,0,1,1.2862-.5654c9.624-3.0552,15.1484,4.6016,13.9453,11.85-1.0986,6.6162-6.6768,11.0923-15.2315,8.8516Z"/><path class="cls-38" d="M334.3232,164.3838a3.9964,3.9964,0,0,1,1.0157-.6025c7.5986-3.2613,11.96,4.91,11.01,12.6445-.8662,7.0591-5.2715,11.8354-12.0254,9.4438Z"/><path class="cls-37" d="M334.3232,165.0366a5.6583,5.6583,0,0,0-1.288-.5654c-9.625-3.0552-15.1495,4.6016-13.9454,11.85,1.0977,6.6162,6.6768,11.0923,15.2334,8.8516Z"/><path class="cls-38" d="M334.3232,164.3838a4.0419,4.0419,0,0,0-1.0166-.6025c-7.5986-3.2613-11.96,4.91-11.0087,12.6445.8652,7.0591,5.2695,11.8354,12.0253,9.4438Z"/><path class="cls-39" d="M338.5938,184.9829c4.746-5.7192,5.1347-21.9448-4.2706-21.8569-9.1435-.085-9.0322,15.2422-4.6611,21.3525A5.51,5.51,0,0,0,338.5938,184.9829Z"/><path class="cls-36" d="M303.8779,167.2354a4.6772,4.6772,0,0,0,1.5352-2.9566c-.0332-1.5522-.8154-2.0234-.8262-2.4267-.0088-.4029.7871-1.0743,1.9033-.8921s.4131,1.0991.628,2.7a5.41,5.41,0,0,0,1.7177,3.8125C309.9287,168.3037,303.8779,167.2354,303.8779,167.2354Z"/><path class="cls-35" d="M304.59,161.8052a1.6267,1.6267,0,0,1,1.9-.8452c.3409.0566.5118.18.5918.3706-.042.3535-.8086.7837-1.5849.8852C304.6152,162.3315,304.59,161.8335,304.59,161.8052Z"/><path class="cls-43" d="M306.0234,168.0078a4.7888,4.7888,0,0,1,1.0782-.4736c8.0576-2.5581,12.6836,3.8535,11.6757,9.9214-.9179,5.54-5.59,9.2876-12.7539,7.4116Z"/><path class="cls-44" d="M306.0234,167.4614a3.3313,3.3313,0,0,1,.8506-.5049c6.3623-2.73,10.0137,4.1114,9.2168,10.587-.7256,5.91-4.4111,9.91-10.0674,7.9077Z"/><path class="cls-43" d="M306.0234,168.0078a4.6852,4.6852,0,0,0-1.0771-.4736c-8.0586-2.5581-12.6836,3.8535-11.6758,9.9214.918,5.54,5.5879,9.2876,12.7529,7.4116Z"/><path class="cls-44" d="M306.0234,167.4614a3.3282,3.3282,0,0,0-.85-.5049c-6.36-2.73-10.0137,4.1114-9.2188,10.587.7266,5.91,4.4141,9.91,10.0693,7.9077Z"/><path class="cls-45" d="M309.6,184.7075c3.9746-4.7886,4.3-18.373-3.5762-18.2988-7.6562-.0718-7.5595,12.7612-3.9013,17.8774A4.6128,4.6128,0,0,0,309.6,184.7075Z"/><path class="cls-46" d="M290.7632,176.3662h58.8432a2.9082,2.9082,0,0,1,2.9082,2.9082v20.6978a2.9077,2.9077,0,0,1-2.9077,2.9077H290.7632a2.9077,2.9077,0,0,1-2.9077-2.9077V179.2739A2.9077,2.9077,0,0,1,290.7632,176.3662Z"/><path class="cls-47" d="M313.0186,176.3662h7.75a14.063,14.063,0,0,1,4.8252,8.709c2.0009,15.314-12.5342,14.9512-11.4532,3.6636C314.3545,186.4849,317.5273,176.3662,313.0186,176.3662Z"/><path class="cls-48" d="M255.8682,176.3662h37.8052a2.9077,2.9077,0,0,1,2.9077,2.9077v20.6978a2.9082,2.9082,0,0,1-2.9082,2.9082H255.87a2.9077,2.9077,0,0,1-2.9077-2.9077v-20.7A2.9063,2.9063,0,0,1,255.8682,176.3662Z"/><path class="cls-49" d="M300.001,178.9307h5.39a.77.77,0,0,1,.77.77v6.5874a.769.769,0,0,1-.769.769h-5.39a.7686.7686,0,0,1-.7686-.7686v-6.5887A.7686.7686,0,0,1,300.001,178.9307Z"/><path class="cls-20" d="M299.7881,188.061h5.8144a.5575.5575,0,0,1,.5577.5562h0a.5572.5572,0,0,1-.5577.5552h-5.8144a.5562.5562,0,0,1-.5557-.5552h0A.5564.5564,0,0,1,299.7881,188.061Z"/><path class="cls-49" d="M299.7881,190.2217h5.818a.5541.5541,0,0,1,.5541.5541v0a.5577.5577,0,0,1-.5577.5577h-5.8144a.5557.5557,0,0,1-.5557-.5557v0a.5557.5557,0,0,1,.5557-.5557Z"/><path class="cls-50" d="M282.1006,202.88H259.8418a3.3874,3.3874,0,0,1,3.3779-3.3794h15.502a3.3883,3.3883,0,0,1,3.3789,3.3794Z"/><path class="cls-16" d="M289.7012,202.88h0a3.3889,3.3889,0,0,0-3.3789-3.3794h-15.503a3.3881,3.3881,0,0,0-3.3779,3.3794h22.26Z"/><path class="cls-51" d="M306.8682,202.88h15.4589a3.3877,3.3877,0,0,0-3.3759-3.3794h-8.7051a3.3887,3.3887,0,0,0-3.3779,3.3794Z"/><path class="cls-16" d="M302.56,202.88h0a3.3879,3.3879,0,0,1,3.38-3.3794h8.3183a3.3874,3.3874,0,0,1,3.3779,3.3794H302.56Z"/><path class="cls-51" d="M330.9,202.88h15.4619a3.39,3.39,0,0,0-3.3789-3.3794h-8.7041A3.3889,3.3889,0,0,0,330.9,202.88Z"/><path class="cls-16" d="M326.5928,202.88h0a3.3891,3.3891,0,0,1,3.38-3.3794H338.29a3.3889,3.3889,0,0,1,3.3789,3.3794H326.5928Z"/><path class="cls-48" d="M343.32,178.9307h5.8165a.5556.5556,0,0,1,.5556.5556v.001a.5552.5552,0,0,1-.5552.5552H343.32a.5547.5547,0,0,1-.5547-.5547v-.0024a.5547.5547,0,0,1,.5547-.5547Z"/><path class="cls-48" d="M345.2207,181.0908h3.917a.5547.5547,0,0,1,.5547.5547v.0024a.5547.5547,0,0,1-.5547.5547h-3.9171a.5556.5556,0,0,1-.5556-.5556v-.0005a.5557.5557,0,0,1,.5557-.5557Z"/><path class="cls-51" d="M343.32,181.0908h0a.557.557,0,0,0-.5547.5557v0a.5567.5567,0,0,0,.5547.5556h0a.5571.5571,0,0,0,.5567-.5556v0A.5575.5575,0,0,0,343.32,181.0908Z"/><path class="cls-46" d="M255.6943,178.9307h5.8184a.5537.5537,0,0,1,.5537.5537v.0044a.5537.5537,0,0,1-.5537.5537h-5.8184a.5547.5547,0,0,1-.5547-.5547v-.0024A.5547.5547,0,0,1,255.6943,178.9307Z"/><path class="cls-46" d="M257.5967,181.0908h3.916a.5537.5537,0,0,1,.5537.5537v.0044a.5537.5537,0,0,1-.5537.5537h-3.9194a.5542.5542,0,0,1-.5542-.5542v0a.5576.5576,0,0,1,.5576-.5576Z"/><path class="cls-46" d="M255.6972,181.0908h.002a.5547.5547,0,0,1,.5547.5547v.0024a.5547.5547,0,0,1-.5547.5547h-.0054a.5542.5542,0,0,1-.5542-.5542v0A.5576.5576,0,0,1,255.6972,181.0908Z"/><path class="cls-35" d="M312.3535,176.3662h2.0313c4.5117,0,1.3379,10.1187,1.123,12.3726-1.0791,11.2876,13.4561,11.65,11.4541-3.6636C325.92,177.1016,317.0391,170.5264,312.3535,176.3662Z"/><path class="cls-33" d="M321.3887,175.79c-.2578-.1822-.52-.3521-.7852-.5074l-1.29-.1806a7.4972,7.4972,0,0,0-1.6895-.9068,5.8934,5.8934,0,0,0-1.497-.0229,8.66,8.66,0,0,1,.9873.2593c.082.0268.1611.0546.24.083l-.5606.7544a.1963.1963,0,1,0,.3155.2338l.623-.8388a7.0322,7.0322,0,0,1,1.378.7763l.0224.0166a6.7733,6.7733,0,0,1,.707.5972l-1.3105,1.1963a.1967.1967,0,0,0,.2646.291l1.32-1.2056a7.0343,7.0343,0,0,1,.7246.9239c.1142.1719.2226.3481.3232.53a8.7345,8.7345,0,0,1,.459.9472l-2.2441,1.7105a.1959.1959,0,1,0,.2363.3125l2.1582-1.6426a12.9934,12.9934,0,0,1,.667,2.7349l.0078.0483-3.7178,3.04a.1971.1971,0,1,0,.25.3047l3.5235-2.8818a19.6264,19.6264,0,0,1,.1074,2.4663v.0117c-.0069.5371-.0342,1.0767-.0781,1.6143-.47.46-3.8926,3.7939-4.251,4.1933a.1969.1969,0,1,0,.2929.2632c.31-.3447,2.9151-2.8892,3.9053-3.8545a31.6141,31.6141,0,0,1-1.373,6.4844.1962.1962,0,1,0,.373.1221,31.9237,31.9237,0,0,0,.9961-3.8731l1.835,2.062a.1969.1969,0,1,0,.2939-.2622l-2.041-2.29c.1563-.89.2793-1.8081.3545-2.732.0391-.4521.0635-.9067.0771-1.3593l2.9756,2.0981a.1968.1968,0,0,0,.2266-.3218l-3.1914-2.2519a19.925,19.925,0,0,0-.1768-2.936c-.0351-.2613-.0771-.52-.1279-.7754l2.5449.92a.1959.1959,0,1,0,.1328-.3687l-2.7705-1.0024a12.3346,12.3346,0,0,0-.5595-1.8311l-.0079-.02c-.1005-.247-.2089-.49-.3252-.7251l1.4512.3828a.1967.1967,0,0,0,.1006-.38l-1.8047-.4756c-.0937-.1636-.19-.3237-.2949-.48a7.6633,7.6633,0,0,0-1.2549-1.459Z"/><path class="cls-35" d="M277.3662,176.3662h-3.334c-7.3994,0-2.1943,16.6021-1.8408,20.3008,1.7676,18.521-22.0771,19.1157-18.793-6.0107C255.1074,177.5737,269.68,166.7842,277.3662,176.3662Z"/><path class="cls-33" d="M262.541,175.4209q.6344-.4482,1.2891-.8325l2.1181-.2974a12.2749,12.2749,0,0,1,2.7706-1.4868,9.7232,9.7232,0,0,1,2.4589-.0386,14.2371,14.2371,0,0,0-1.6211.4263c-.1337.0425-.2646.09-.3945.1367l.919,1.2378a.3228.3228,0,0,1-.52.3833l-1.0215-1.3769a11.5345,11.5345,0,0,0-2.2607,1.2753l-.0352.0249a11.1213,11.1213,0,0,0-1.1621.9815l2.1524,1.9614a.3232.3232,0,0,1-.4356.4776l-2.167-1.9776a11.97,11.97,0,0,0-1.1875,1.5152q-.2812.4226-.5312.871a14.6547,14.6547,0,0,0-.752,1.5542l3.6827,2.8057a.3226.3226,0,1,1-.3917.5127l-3.5371-2.6938a21.479,21.479,0,0,0-1.0957,4.4873l-.0107.08,6.0967,4.9873a.3234.3234,0,1,1-.41.5l-5.78-4.729a33.3851,33.3851,0,0,0-.1777,4.0464v.02c.0147.8808.0576,1.7661.1279,2.6489.7754.7544,6.3877,6.2246,6.9786,6.8808a.3226.3226,0,0,1-.4805.4307c-.5088-.5654-4.7842-4.7407-6.4092-6.3242a51.819,51.819,0,0,0,2.2549,10.6392.3235.3235,0,0,1-.6152.2,51.6517,51.6517,0,0,1-1.6309-6.3544l-3.0137,3.3828a.323.323,0,0,1-.4824-.43l3.3477-3.7583c-.2539-1.459-.4571-2.9649-.5821-4.481-.06-.7422-.1025-1.4883-.1259-2.2319l-4.88,3.4424a.3224.3224,0,1,1-.37-.5279l5.2343-3.6928a32.581,32.581,0,0,1,.2881-4.8169q.0909-.6446.21-1.2735l-4.1748,1.51a.3221.3221,0,1,1-.2188-.606l4.5479-1.645a19.77,19.77,0,0,1,.9189-3.0039l.0127-.0327q.2446-.6093.5332-1.19l-2.3818.6279a.3226.3226,0,1,1-.1641-.624l2.958-.7808c.1553-.2681.3184-.5322.4864-.7871a12.387,12.387,0,0,1,2.06-2.3936Z"/><path class="cls-20" d="M449.6445,404.9219H56.7676A11.1126,11.1126,0,0,0,45.6885,416.001h0A11.1126,11.1126,0,0,0,56.7676,427.08h55.4878a6.172,6.172,0,0,1,6.1552,6.1543v.001a6.1726,6.1726,0,0,1-6.1552,6.1542H98.5806a7.7168,7.7168,0,0,0-7.6949,7.6944v.001a7.7159,7.7159,0,0,0,7.6949,7.69H393.7979a7.7142,7.7142,0,0,0,7.6943-7.69v-.001a7.7163,7.7163,0,0,0-7.6943-7.6944H383.0273a6.1726,6.1726,0,0,1-6.1552-6.1542v-.001a6.1727,6.1727,0,0,1,6.1552-6.1543h66.6172a11.1118,11.1118,0,0,0,11.0782-11.0791h0a11.113,11.113,0,0,0-11.0782-11.0791Zm-36.6894,49.8535a7.4069,7.4069,0,0,1-7.3858-7.3848v-.6162a7.4075,7.4075,0,0,1,7.3858-7.3848h0a7.4068,7.4068,0,0,1,7.3857,7.3848v.6162a7.4042,7.4042,0,0,1-7.3857,7.3848Z"/><path class="cls-54" d="M166.5928,315.9082H44.8047a41.4671,41.4671,0,0,0,7.936,9.6943H166.5928Z"/><path class="cls-54" d="M166.5928,375.5322h-50.88a64.0281,64.0281,0,0,0,1.3311,9.6944h49.5493Z"/><path class="cls-47" d="M166.2256,285.416l-7.9151,12.2022a1.61,1.61,0,0,0-.2714.917V403.8037a1.6868,1.6868,0,0,0,1.6836,1.6836h15.8295a1.6874,1.6874,0,0,0,1.6846-1.6836V298.5352a1.608,1.608,0,0,0-.27-.917l-7.915-12.2022a1.6841,1.6841,0,0,0-2.8257,0Z"/><path class="cls-54" d="M167.6372,317.8926a2.375,2.375,0,1,0,2.376,2.374A2.3745,2.3745,0,0,0,167.6372,317.8926Z"/><path class="cls-54" d="M167.6372,378.1445a2.3755,2.3755,0,1,0,2.376,2.375A2.3753,2.3753,0,0,0,167.6372,378.1445Z"/><path class="cls-47" d="M135.5068,285.416l-7.915,12.2022a1.608,1.608,0,0,0-.2705.917V403.8037a1.6874,1.6874,0,0,0,1.6846,1.6836H144.835a1.6866,1.6866,0,0,0,1.684-1.6836V298.5352a1.6071,1.6071,0,0,0-.2695-.917L138.334,285.416a1.6854,1.6854,0,0,0-2.8272,0Z"/><path class="cls-54" d="M136.92,317.8926a2.375,2.375,0,1,0,2.375,2.374A2.3752,2.3752,0,0,0,136.92,317.8926Z"/><path class="cls-54" d="M136.92,378.1445a2.3755,2.3755,0,1,0,2.375,2.375A2.3761,2.3761,0,0,0,136.92,378.1445Z"/><path class="cls-47" d="M104.7915,285.416,96.876,297.6182a1.6118,1.6118,0,0,0-.27.917V340.25a35.5534,35.5534,0,0,1,18.9839,31.37h0q0,2.6412.2148,5.2276V298.5352a1.61,1.61,0,0,0-.2725-.917l-7.914-12.2022a1.6845,1.6845,0,0,0-2.8262,0Z"/><path class="cls-54" d="M106.2046,317.8926a2.375,2.375,0,1,0,2.3745,2.374A2.3752,2.3752,0,0,0,106.2046,317.8926Z"/><path class="cls-47" d="M74.0742,285.416l-7.915,12.2022a1.6094,1.6094,0,0,0-.272.917v35.0566a40.6548,40.6548,0,0,0,14.2393,2.5654,35.2386,35.2386,0,0,1,4.96.3526V298.5352a1.6094,1.6094,0,0,0-.272-.917L76.9,285.416a1.6841,1.6841,0,0,0-2.8257,0Z"/><path class="cls-54" d="M75.4873,317.8926a2.375,2.375,0,1,0,2.374,2.374A2.3744,2.3744,0,0,0,75.4873,317.8926Z"/><path class="cls-47" d="M43.3569,285.416l-4.0874,6.3c-.0952,1.1348-.1465,2.28-.1465,3.4385h0a40.9747,40.9747,0,0,0,15.2466,31.84V298.5352a1.6123,1.6123,0,0,0-.271-.917L46.1831,285.416a1.6845,1.6845,0,0,0-2.8262,0Z"/><path class="cls-33" d="M395.084,344.8555s.69-.12,2.5566-.4434c5.67-.9853-.5273-13.0195-1.291-15.8076-3.8193-13.9609,14.3818-17.5879,15.207,2.1084C411.9854,340.97,402.25,351.1777,395.084,344.8555Z"/><path class="cls-34" d="M406.5742,343.6055q-.4263.4321-.8789.8125l-1.584.5078a9.4674,9.4674,0,0,1-1.9258,1.51,7.6519,7.6519,0,0,1-1.8779.3565,11.2036,11.2036,0,0,0,1.1856-.543c.0966-.05.1894-.1035.2841-.1562l-.87-.8272a.2507.2507,0,0,1,.3467-.3623l.9668.919a8.9034,8.9034,0,0,0,1.5625-1.2774l.0244-.0244a8.8636,8.8636,0,0,0,.7608-.9062l-1.9112-1.2178a.2519.2519,0,0,1-.0752-.3467.2494.2494,0,0,1,.3457-.0781l1.9239,1.2285a9.42,9.42,0,0,0,.71-1.3193q.1582-.362.29-.7393a11.4128,11.4128,0,0,0,.37-1.29l-3.1973-1.6621a.2505.2505,0,1,1,.2334-.4434l3.07,1.5918a16.8377,16.8377,0,0,0,.2442-3.583l-.003-.0625-5.3379-3.0127a.2531.2531,0,0,1-.0957-.3428.25.25,0,0,1,.3418-.0967l5.0616,2.8575a25.6787,25.6787,0,0,0-.4024-3.125l-.0029-.0147c-.127-.6748-.2793-1.3457-.4483-2.0146-.6962-.4746-5.7255-3.9239-6.2656-4.3448a.252.252,0,0,1,.3125-.3955c.4639.3643,4.2959,2.9981,5.751,3.9951a40.14,40.14,0,0,0-3.1416-7.8544.2514.2514,0,1,1,.4443-.2354,40.3663,40.3663,0,0,1,2.0957,4.6533l1.86-2.9931a.2487.2487,0,0,1,.3457-.0811.253.253,0,0,1,.081.3457l-2.0683,3.3262c.3906,1.0859.7461,2.2119,1.042,3.3574.1474.5605.2773,1.127.3955,1.6953l3.2822-3.29a.2506.2506,0,0,1,.3535.3554l-3.52,3.5293a25.7488,25.7488,0,0,1,.42,3.7286c.0108.3369.0137.6738.0078,1.0058l3-1.7119a.2491.2491,0,1,1,.2471.4326l-3.2676,1.8662a15.2816,15.2816,0,0,1-.3047,2.4248l-.0058.0274q-.1054.501-.249.9824l1.74-.7979a.2524.2524,0,0,1,.21.459l-2.163.99q-.1245.3412-.2686.6679a9.6548,9.6548,0,0,1-1.2607,2.11Z"/><path class="cls-35" d="M397.2344,341.31s.69.3359,2.5508,1.25c5.6621,2.7773,7.9082-11.8789,9.0244-14.8428,5.5967-14.834,24.0654-6.3428,12.125,11.6514C414.7188,348.7354,399.5215,351.5244,397.2344,341.31Z"/><path class="cls-33" d="M408.2236,347.5938c-.4345.07-.8691.124-1.2988.1542l-1.7305-.5673a10.4,10.4,0,0,1-2.68.0966,8.1916,8.1916,0,0,1-1.8945-.8916,12.2414,12.2414,0,0,0,1.3994.2823c.1172.0166.2364.0312.3526.0439l-.2383-1.292a.275.275,0,1,1,.541-.1l.2647,1.4365a9.761,9.761,0,0,0,2.207-.1279l.039-.0049a9.4041,9.4041,0,0,0,1.2559-.3154l-.91-2.3076a.276.276,0,0,1,.5136-.2022l.916,2.3272a10.6547,10.6547,0,0,0,1.4776-.7139q.37-.22.7314-.4668a12.3676,12.3676,0,0,0,1.1592-.9092l-1.7666-3.5273a.2754.2754,0,0,1,.4932-.2451l1.6943,3.3877a18.0712,18.0712,0,0,0,2.5234-3.0205l.0391-.0586-2.7959-6.1045a.278.278,0,0,1,.1377-.3643.2752.2752,0,0,1,.3643.1358l2.6484,5.7871a28.1861,28.1861,0,0,0,1.6553-3.03l.0048-.0127c.3213-.68.6211-1.374.8985-2.0762-.31-.8672-2.5527-7.1582-2.7588-7.8828a.2756.2756,0,0,1,.5312-.1474c.1768.622,1.8809,5.4218,2.53,7.24a44.1158,44.1158,0,0,0,2.2676-8.9863.2743.2743,0,0,1,.543.0781,43.91,43.91,0,0,1-1.1348,5.4746l3.5762-1.458a.2755.2755,0,0,1,.207.5107l-3.9736,1.6192c-.3506,1.2138-.7608,2.44-1.2334,3.6474q-.35.8877-.7422,1.7539l5.0244-.8037a.28.28,0,0,1,.3164.2285.2771.2771,0,0,1-.2275.3155l-5.3926.8613a27.8314,27.8314,0,0,1-2.0293,3.5791q-.3091.4571-.6377.8945l3.7617.4121a.2742.2742,0,1,1-.06.545l-4.0977-.4473a17.0245,17.0245,0,0,1-1.8281,1.9541l-.0244.02c-.2774.249-.5606.4873-.8526.709l2.0567.4141a.2745.2745,0,1,1-.1094.538l-2.5566-.5107c-.2168.1465-.44.2871-.6661.42a10.5512,10.5512,0,0,1-2.4736,1.0576Z"/><path class="cls-33" d="M425.69,315.37c-.3965,2.2217-.1211,7.0117.07,9.582.2666,3.5713,1.7861,3.8536,3.0566.5674.9141-2.3642,2.544-6.8007,2.8027-9.0488C432.1221,312.1221,426.4541,311.07,425.69,315.37Z"/><path class="cls-52" d="M427.915,319.4531c-.8554,2.09-1.5937,6.8321-1.9472,9.3838-.4922,3.5469.9345,4.1436,2.8681,1.1973,1.3916-2.12,3.917-6.1153,4.6446-8.2569C434.8857,317.6328,429.5664,315.4121,427.915,319.4531Z"/><path class="cls-35" d="M428.2324,319.6738c.1485,2.252-.6484,6.9834-1.1181,9.5157-.6543,3.5234-2.1963,3.6367-3.1006.23-.6514-2.4492-1.7852-7.0381-1.7979-9.3008C422.1914,315.7422,427.94,315.3174,428.2324,319.6738Z"/><path class="cls-41" d="M433.6172,337.0938c-.6358,5.1015-4.958,15.1474-7.3867,20.5-3.3789,7.4384-7.57,6.76-8.4258-1.3663-.6152-5.8466-1.541-16.7431-.53-21.7841C419.2275,324.6934,434.8447,327.2246,433.6172,337.0938Z"/><path class="cls-40" d="M433.6172,337.0938c-.0488.3847-.1172.8007-.2061,1.2392-.457-.2168-.915-.416-1.3291-.5986a.2264.2264,0,0,1-.0361-.0215.15.15,0,0,1-.0371-.0117c-.0195-.0088-.0488-.02-.0635-.0274a29.1364,29.1364,0,0,0-3.34-1.27c-.1172-.0459-.2891-.0869-.416-.1221-.28-.0849-.5791-.166-.8536-.2656-.4531-.1641-.7119-.11-.9228-.6123-.2451-.627.5683-.7568,1.0068-.8145a4.83,4.83,0,0,1,1.0947-.0029c.167.0186.3292.041.4952.0723a18.1364,18.1364,0,0,1,3.749,1.1338.5862.5862,0,0,1,.0693.0273.1508.1508,0,0,1,.0381.0244.16.16,0,0,1,.042.0127c.2607.1192.5195.2442.7734.3721-.0078.2812-.0273.5684-.0644.8643Zm-3.9443,12.5029q-.3882.9609-.7793,1.8945l-.0088-.001c-1.002-.4052-2.0049-.7089-2.99-1.0937-.5556-.2315-.9453-.4033-.84-1.0527.1113-.6836.6377-.6778,1.2441-.6231a15.0022,15.0022,0,0,1,3.3223.8545c.01.0059.0195.0107.0293.0176l.0225.0039Zm-11.7383,7.6367q-.0747-.48-.13-1.0059c-.0332-.3291-.0684-.6757-.1065-1.0341l.13-.0059a.0661.0661,0,0,1,.0313.0059h0a.0751.0751,0,0,1,.0312-.0088,13.651,13.651,0,0,1,3.29.3457c.5117.1318,1.4609.3593,1.3457,1.0664-.1114.6836-1.0332.64-1.5576.6445-1.0284-.0019-1.9747-.06-3.0167-.0049l-.0175-.0029ZM416.84,342.2285c-.0136-.668-.0156-1.3252-.0136-1.9619a12.4808,12.4808,0,0,1,2.6347-.5693c.0166-.001.0332,0,.0489,0l.0468-.0088a21.7024,21.7024,0,0,1,5.0987.4394c.4424.0879.8877.1778,1.3261.2852.5.1289,2.3907.4639,2.3038,1.2471-.1631.7666-2.0655.4912-2.5791.456-.4532-.0381-.9014-.11-1.3487-.1494a20.7142,20.7142,0,0,0-4.6435-.2324.1807.1807,0,0,1-.04-.003.1222.1222,0,0,1-.042.0079,18.741,18.741,0,0,0-2.792.4892Zm6.6407-6.5078a4.7645,4.7645,0,0,1-1.17-.0234c-.0048,0-.0078-.003-.0117-.0078a.0089.0089,0,0,1-.0107.0029,4.9784,4.9784,0,0,1-1.14-.3584c-.3535-.2236-.3144-.5508-.2578-.9151.0615-.3691.1289-.6875.544-.7851a5.0858,5.0858,0,0,1,1.1894.0361.014.014,0,0,1,.0127.0069l.0117-.0039a4.897,4.897,0,0,1,1.0889.3408c.32.2148.27.57.2285.9052-.041.3526-.0879.6924-.4853.8018ZM421.96,349.7119a2.288,2.288,0,0,1-.709.0518l-.0049-.0069-.0068.0059a2.2936,2.2936,0,0,1-.6573-.2734.9.9,0,0,1-.1836-.9024c.0518-.3232.1221-.66.46-.7978a2.3408,2.3408,0,0,1,.708-.0528l.0059.0088.0078-.0058a2.3756,2.3756,0,0,1,.6553.2714.9.9,0,0,1,.1835.9043C422.3662,349.2383,422.2959,349.5752,421.96,349.7119Z"/><path class="cls-16" d="M426.5039,335.7139a5.4666,5.4666,0,1,1-3.3184,5.8711,4.0075,4.0075,0,1,1-1.2343-6.7608,2.494,2.494,0,0,1,.3037-.541,2.3616,2.3616,0,0,1,4.249,1.4307Z"/><path class="cls-7" d="M421.4727,340.0762a6.6157,6.6157,0,1,0,4.0146,7.1045,4.8484,4.8484,0,1,0,1.4932-8.1787,2.8893,2.8893,0,0,0-.3692-.6524,2.8543,2.8543,0,0,0-5.1386,1.7266Z"/><path class="cls-33" d="M450.9971,312.5537c-1.1846,2.2061-2.5479,7.3555-3.2354,10.1328-.9531,3.8584.5537,4.6807,3.0293,1.6543,1.7813-2.1787,5.0322-6.2978,6.084-8.5791C458.9043,311.35,453.2881,308.2832,450.9971,312.5537Z"/><path class="cls-52" d="M451.9336,317.6289c-1.6211,1.9092-4.0391,6.6543-5.294,9.2275-1.7441,3.57-.4443,4.6934,2.6133,2.254,2.2-1.7569,6.2442-5.0987,7.752-7.1065C459.918,318.1162,455.0732,313.9375,451.9336,317.6289Z"/><path class="cls-35" d="M452.1914,317.9707c-.6172,2.4287-3.0937,7.1445-4.4648,9.6543-1.9053,3.49-3.5723,3.0771-3.3506-.8291.16-2.8086.5488-8.041,1.3174-10.4326C447.1787,311.7393,453.3906,313.2744,452.1914,317.9707Z"/><path class="cls-42" d="M451.8584,338.207c-2.4316,5.1651-10.4609,14.27-14.875,19.0752-6.1328,6.6826-10.3174,4.5176-8.4141-4.3506,1.3692-6.38,4.1573-18.1943,6.9629-23.164C440.9619,320.1572,456.5605,328.2207,451.8584,338.207Z"/><path class="cls-53" d="M451.8584,338.207c-.1855.3916-.4.8057-.6465,1.2364-.4053-.3838-.8213-.7549-1.1953-1.0909a.32.32,0,0,1-.03-.0341.1825.1825,0,0,1-.0351-.0254c-.0176-.0137-.0449-.0371-.0576-.05a32.038,32.038,0,0,0-3.085-2.4942c-.1074-.0888-.2754-.1875-.3965-.2734-.2656-.1856-.5527-.3721-.8086-.5713-.4209-.3311-.7129-.3633-.7617-.9658-.042-.7461.86-.6016,1.3447-.5117a5.2214,5.2214,0,0,1,1.1533.375c.1709.0752.334.1582.4971.2451a20.0427,20.0427,0,0,1,3.5654,2.4951.6244.6244,0,0,1,.0635.0518c.0117.0117.0225.0253.0332.0371a.1816.1816,0,0,1,.0391.0293c.2353.2158.4629.4365.6865.6591-.1074.293-.2275.5918-.3662.8877Zm-8.48,11.8282c-.4941.5859-.9893,1.166-1.4775,1.7324l-.0069-.0059c-.9179-.7734-1.872-1.4385-2.7793-2.1865-.5058-.4365-.8564-.752-.5195-1.4033.3535-.6817.9053-.49,1.5244-.2256a16.711,16.711,0,0,1,3.21,2.0478.1143.1143,0,0,1,.0254.0313.078.078,0,0,1,.0234.01Zm-15.0215,4.0039q.0894-.5348.2119-1.1075c.0772-.3584.1582-.7373.2452-1.1259l.1376.039a.0967.0967,0,0,1,.0323.0147h0a.0741.0741,0,0,1,.0332.0039,15.162,15.162,0,0,1,3.3525,1.499c.4951.3174,1.416.8828,1.0518,1.59-.3526.6817-1.3106.3165-1.8662.1436-1.084-.3594-2.0616-.7471-3.18-1.0488l-.0186-.0078Zm4.0264-16.208a20.2413,20.2413,0,0,1,3.1172.45.226.226,0,0,0,.0439.0048c.0137.0059.0283.0108.043.0166a23.1109,23.1109,0,0,1,4.8184,1.8467c.458.1963.9072.4277,1.37.6231.53.2168,2.4394,1.163,2.8789.41.3623-.793-1.5147-1.8037-1.9981-2.1113-.4267-.2627-.8642-.5108-1.3008-.7568a24.0282,24.0282,0,0,0-5.2294-2.2227.147.147,0,0,0-.0518-.0078.2484.2484,0,0,0-.0488-.0195,14.1844,14.1844,0,0,0-2.9776-.3086c-.2236.6718-.4453,1.3652-.665,2.0752Zm9.2549-4.5713a5.1814,5.1814,0,0,1-1.2266-.4317c-.0029,0-.0058-.0049-.0078-.0107a.0135.0135,0,0,1-.0147,0,5.6225,5.6225,0,0,1-1.0791-.7705c-.2949-.36-.1406-.6914.0469-1.0537.1905-.37.3731-.6827.8438-.6416a5.8062,5.8062,0,0,1,1.2441.4472.0156.0156,0,0,1,.0088.0127l.0137.002a5.3185,5.3185,0,0,1,1.0322.7344c.2607.3339.0879.6923-.0693,1.0312-.168.3594-.335.7022-.792.6807Zm-6.4375,14.2363a2.599,2.599,0,0,1-.7637-.1934l-.0049-.0088-.0088.003a2.6174,2.6174,0,0,1-.5986-.5127,1.003,1.003,0,0,1,.1182-1.0166c.1679-.3223.3574-.6543.7627-.6836a2.5393,2.5393,0,0,1,.7627.1914l.0039.0088.0087-.002a2.56,2.56,0,0,1,.5987.5127.9944.9944,0,0,1-.1182,1.0166C435.7959,347.1348,435.6045,347.4658,435.2012,347.4961Z"/><path class="cls-33" d="M400.3389,315.0674c-.4649,2.208-2.5157,6.5469-3.6543,8.8574-1.586,3.2129-3.1016,2.9043-3.0479-.6191.0381-2.5342.19-7.26.791-9.44C395.5928,309.6465,401.24,310.7959,400.3389,315.0674Z"/><path class="cls-52" d="M396.7461,318.02c.01,2.2559-1.083,6.93-1.7109,9.4287-.8721,3.4717-2.42,3.4922-3.1084.0352-.4961-2.4854-1.3409-7.1367-1.212-9.3945C390.9658,313.7188,396.7285,313.6523,396.7461,318.02Z"/><path class="cls-35" d="M396.37,318.1064c-.9834,2.0313-2.0185,6.7159-2.53,9.2413-.7109,3.51.6748,4.1943,2.7881,1.3759,1.5235-2.0293,4.292-5.8584,5.1524-7.9511C403.44,316.7227,398.2715,314.1738,396.37,318.1064Z"/><path class="cls-41" d="M384.85,332.2373c-1.3213,4.97-1.0791,15.9014-.831,21.7754.3457,8.1621,4.4873,9.1016,8.3222,1.8906,2.7608-5.1914,7.7012-14.9463,8.6533-20C402.8379,326.1309,387.4092,322.627,384.85,332.2373Z"/><path class="cls-40" d="M384.85,332.2373c-.1.376-.19.7871-.2725,1.2266.503-.0284,1.0049-.042,1.4571-.0567a.1885.1885,0,0,0,.04-.0078.1825.1825,0,0,0,.041.0059c.0186-.001.05,0,.0684-.003a28.7264,28.7264,0,0,1,3.5723.0752c.1259,0,.3.0284.4306.0411.293.0273.5987.0654.8906.0742.4815.0166.7012.166,1.084-.2217.4629-.49-.2422-.916-.6289-1.1318a4.7114,4.7114,0,0,0-1.0117-.4131c-.1631-.0469-.3223-.086-.4853-.1182a18.1224,18.1224,0,0,0-3.9043-.3535.6491.6491,0,0,0-.0752,0,.1252.1252,0,0,0-.042.0068.2287.2287,0,0,0-.0449-.0049c-.2852.0137-.5713.0342-.8555.0577-.0977.2636-.1856.5361-.2637.8232Zm-1.0273,13.0713c0,.69.0048,1.376.0117,2.05h.01c1.081,0,2.122.0947,3.1816.1074.6016-.0058,1.0273-.0195,1.1728-.664.1534-.6748-.3359-.8633-.9189-1.042a15.1335,15.1335,0,0,0-3.3994-.4512.1357.1357,0,0,0-.0352.0039l-.0224-.0039Zm8.0234,11.4775c.1641-.2783.3311-.5742.4951-.8828.1563-.2939.3194-.6006.4863-.92l-.1171-.0527a.0781.0781,0,0,0-.0323-.0078h0a.0614.0614,0,0,0-.0263-.0186,13.59,13.59,0,0,0-3.1787-.9121c-.5245-.0693-1.4883-.2158-1.6475.4834-.1543.6767.7187.98,1.2041,1.1826.9541.3828,1.8525.6816,2.7978,1.125l.0186.0029Zm6.6348-13.5009c.2627-.6153.5127-1.2227.747-1.8155A12.4946,12.4946,0,0,0,397,339.9551a.3722.3722,0,0,0-.0469-.0166.2258.2258,0,0,0-.039-.0264,21.7743,21.7743,0,0,0-4.8916-1.5039c-.4424-.083-.8907-.165-1.336-.2324-.5136-.0684-2.3906-.4629-2.6045.293-.1347.7734,1.7315,1.2285,2.2237,1.3886.4326.1348.875.2364,1.3037.3672a20.7555,20.7555,0,0,1,4.3926,1.5264.1066.1066,0,0,0,.039.0107.0834.0834,0,0,0,.0342.0235,18.5213,18.5213,0,0,1,2.4053,1.5Zm-3.7188-8.5225a4.69,4.69,0,0,0,1.0938.416l.0117-.0039.0117.0088a5.02,5.02,0,0,0,1.19.0967c.4131-.0772.4991-.3955.58-.7539.084-.3643.14-.6846-.208-.9307a5.1875,5.1875,0,0,0-1.1182-.4141l-.0117.003-.0107-.0078a4.8429,4.8429,0,0,0-1.1377-.0918c-.375.0781-.4619.4248-.5508.7509-.0947.3457-.1777.6778.1494.9268Zm-3.831,13.5439a2.3008,2.3008,0,0,0,.6357.3106.0067.0067,0,0,0,.0088-.0029l.0059.0058a2.2071,2.2071,0,0,0,.708-.0058c.3457-.1163.4365-.4473.5107-.7686a.9.9,0,0,0-.1269-.9131,2.3487,2.3487,0,0,0-.6377-.3115l-.0069.0049-.0058-.0078a2.3668,2.3668,0,0,0-.71.0058c-.3457.1192-.4355.4492-.5088.77A.8963.8963,0,0,0,390.9307,348.3066Z"/><path class="cls-33" d="M379.4912,307.998c.2451,2.2442-.3545,7.004-.7178,9.5547-.5088,3.545-2.0439,3.7237-3.09.3594-.752-2.42-2.0772-6.957-2.1846-9.2178C373.292,304.3242,379.0166,303.6582,379.4912,307.998Z"/><path class="cls-52" d="M376.9941,311.9209c.7129,2.1426,1.128,6.9238,1.3086,9.4941.251,3.5733-1.2129,4.0694-2.9443,1-1.2451-2.2089-3.4941-6.3652-4.0752-8.5517C370.1641,309.6348,375.6182,307.7783,376.9941,311.9209Z"/><path class="cls-35" d="M376.6641,312.1191c-.3028,2.2373.1738,7.0137.4726,9.5723.4131,3.5557,1.9444,3.7744,3.0762.44.8164-2.4024,2.2578-6.9034,2.4228-9.1612C382.9551,308.6064,377.249,307.7939,376.6641,312.1191Z"/><path class="cls-42" d="M370.1133,329.1348c.2881,5.1347,3.9219,15.4482,5.9853,20.9541,2.8682,7.6494,7.0957,7.2539,8.4971-.792,1.0088-5.792,2.67-16.6035,2.002-21.7C385.3086,317.7363,369.5547,319.2061,370.1133,329.1348Z"/><path class="cls-53" d="M370.1133,329.1348c.0215.3886.0635.8086.1221,1.25.4687-.1827.94-.3516,1.3662-.5059.0136-.0049.0234-.0137.0371-.0185l.0381-.0079c.0185-.0087.05-.0166.0654-.0254a29.5063,29.5063,0,0,1,3.417-1.04c.1221-.0391.2939-.0644.4238-.0947.2861-.0654.59-.124.8691-.2051.4639-.1338.7178-.0615.961-.55.2881-.6084-.5147-.793-.95-.8779a4.4992,4.4992,0,0,0-1.0908-.0782c-.167.0049-.3291.0186-.4971.0362a17.9755,17.9755,0,0,0-3.82.8808.6034.6034,0,0,0-.07.0225.1562.1562,0,0,0-.0381.0195.1717.1717,0,0,0-.044.0108q-.4013.1509-.7949.3193c-.0107.2813-.0107.5693.0059.8643Zm3.09,12.7431c.2149.6553.4326,1.3067.6494,1.9444l.0079-.003c1.0292-.3369,2.0478-.5693,3.0576-.8867.57-.1943.9716-.34.9082-.9971-.0625-.69-.5889-.7177-1.1973-.7031a14.8741,14.8741,0,0,0-3.3711.626.1447.1447,0,0,0-.0322.0166.0653.0653,0,0,0-.0225.0029Zm11.1953,8.4121c.07-.3173.1368-.6494.1973-.9931.0576-.3272.1162-.6719.1768-1.0274l-.13-.0146a.1208.1208,0,0,0-.0322.0029h0a.06.06,0,0,0-.0293-.0078,13.6665,13.6665,0,0,0-3.3067.1211c-.5185.0986-1.4805.26-1.415.9727.0654.6884.9892.706,1.5127.7509,1.0263.0645,1.9726.07,3.0088.1953Zm2.1065-14.8964c.0566-.6661.1064-1.32.1445-1.9581a12.64,12.64,0,0,0-2.5889-.7451.4022.4022,0,0,0-.0478-.0019.3519.3519,0,0,0-.0469-.0117,21.7272,21.7272,0,0,0-5.1181.0908c-.4454.0586-.8965.1191-1.3418.1963-.5069.0937-2.417.3017-2.3819,1.0879.1133.7783,2.0274.6289,2.543.6289.4531-.0049.9072-.05,1.3555-.0577a20.7183,20.7183,0,0,1,4.6484.0831.0929.0929,0,0,0,.04,0,.1488.1488,0,0,0,.04.0117,18.4186,18.4186,0,0,1,2.7539.6758ZM380.32,328.45a4.7029,4.7029,0,0,0,1.167.0566l.0117-.0078a.0167.0167,0,0,0,.0137.0049,5.0516,5.0516,0,0,0,1.1592-.2793c.3681-.2.3515-.5283.3174-.8984-.0342-.3721-.08-.6934-.4873-.8184a5.2418,5.2418,0,0,0-1.1924-.0459l-.01.0088-.0127-.0059a4.8564,4.8564,0,0,0-1.1084.2666c-.334.1924-.3086.5489-.291.8848.0176.3584.042.7.4326.834Zm.5713,14.0654a2.3381,2.3381,0,0,0,.7022.0977l.0068-.0069.0049.0069a2.3852,2.3852,0,0,0,.6738-.2276.8984.8984,0,0,0,.2461-.8886c-.0313-.3282-.0781-.668-.4063-.8282a2.332,2.332,0,0,0-.7031-.1l-.0058.0049c-.002,0-.003-.0029-.0079-.0019a2.1875,2.1875,0,0,0-.6709.2265.8918.8918,0,0,0-.2451.8887C380.5166,342.0127,380.5645,342.3535,380.8916,342.5156Z"/><path class="cls-33" d="M389.94,359.05s.6289-.3115,2.3252-1.1543c5.1543-2.5605-4.2187-12.3262-5.7461-14.7812-7.6445-12.292,8.7657-20.961,15.1748-2.3184C405.0313,350.5029,398.6133,363.0654,389.94,359.05Z"/><path class="cls-34" d="M400.5967,354.5771c-.19.3536-.3946.6954-.6094,1.0264l-1.3721.94a9.5533,9.5533,0,0,1-1.417,1.9961,7.4856,7.4856,0,0,1-1.6982.8759,10.8677,10.8677,0,0,0,.9805-.8564c.0791-.0781.1552-.1543.2285-.2324l-1.0684-.544a.2507.2507,0,1,1,.2266-.4472l1.1894.6064A8.8354,8.8354,0,0,0,398.19,356.27l.0166-.03a8.5068,8.5068,0,0,0,.4716-1.085l-2.1787-.623a.25.25,0,1,1,.1377-.4815l2.1934.627a9.4629,9.4629,0,0,0,.3037-1.4659c.0332-.2627.0557-.5244.0683-.792a11.8462,11.8462,0,0,0-.0126-1.3418l-3.5381-.6826a.25.25,0,1,1,.0957-.49l3.3965.65a16.6808,16.6808,0,0,0-.7891-3.5059l-.0215-.0576-5.9736-1.3642a.252.252,0,0,1-.19-.3.2552.2552,0,0,1,.3008-.1923l5.667,1.2949a25.8542,25.8542,0,0,0-1.2793-2.8809l-.0059-.0136c-.3144-.6084-.6513-1.209-1.0058-1.8008-.8-.2578-6.6065-2.125-7.2442-2.38a.25.25,0,0,1-.14-.3262.2542.2542,0,0,1,.3271-.1406c.5489.2187,4.9717,1.6484,6.6524,2.1894a40.3768,40.3768,0,0,0-5.2529-6.6337.2507.2507,0,1,1,.3584-.3506,40.2475,40.2475,0,0,1,3.3369,3.8623l.9287-3.4a.251.251,0,1,1,.4844.1318l-1.0323,3.7793c.6836.9268,1.3457,1.9063,1.9571,2.9209.3.4942.5869.999.86,1.51l2.208-4.0879a.2531.2531,0,0,1,.34-.1006.25.25,0,0,1,.1015.34l-2.3681,4.3857a25.43,25.43,0,0,1,1.4658,3.4551c.1084.32.2041.6406.2949.96l2.3867-2.497a.251.251,0,0,1,.3623.3476l-2.6006,2.7188a15.338,15.338,0,0,1,.4,2.4121l.0029.0283c.0263.3389.041.6758.041,1.0127l1.44-1.2607a.2516.2516,0,1,1,.3321.3779l-1.793,1.5683c-.0127.24-.0352.4776-.0654.7139a9.6867,9.6867,0,0,1-.6045,2.3818Z"/><path class="cls-55" d="M407.9854,332.18a4.6644,4.6644,0,0,1-1.5352-2.957c.0322-1.5518.8144-2.0235.8252-2.4268.0088-.4023-.7881-1.0732-1.9043-.8906-1.1162.1845-.4131,1.1-.627,2.6992a5.408,5.408,0,0,1-1.7177,3.8125C401.9326,333.248,407.9854,332.18,407.9854,332.18Z"/><path class="cls-56" d="M407.2725,326.749c-.0479-.4043-.8272-1.0185-1.9014-.8437-.3389.0576-.51.18-.5889.3691.04.3535.8067.7852,1.5821.8858C407.2461,327.2764,407.2705,326.7783,407.2725,326.749Z"/><path class="cls-43" d="M405.84,332.9521a4.8461,4.8461,0,0,0-1.0781-.4707c-8.0586-2.56-12.6846,3.8506-11.6758,9.92.918,5.539,5.59,9.2881,12.7539,7.4111Z"/><path class="cls-44" d="M405.84,332.4063a3.4306,3.4306,0,0,0-.8515-.5059c-6.3623-2.7285-10.0127,4.1142-9.2188,10.5879.7266,5.9111,4.4131,9.9092,10.07,7.9062Z"/><path class="cls-43" d="M405.84,332.9521a4.67,4.67,0,0,1,1.0762-.4707c8.0586-2.56,12.6836,3.8506,11.6768,9.92-.919,5.539-5.5889,9.2881-12.753,7.4111Z"/><path class="cls-44" d="M405.84,332.4063a3.3523,3.3523,0,0,1,.85-.5059c6.3613-2.7285,10.0136,4.1142,9.2187,10.5879-.7256,5.9111-4.4131,9.9092-10.0684,7.9062Z"/><path class="cls-45" d="M402.2637,349.6523c-3.9746-4.7871-4.3008-18.373,3.5761-18.2978,7.6543-.0723,7.5606,12.76,3.8995,17.876A4.6113,4.6113,0,0,1,402.2637,349.6523Z"/><path class="cls-50" d="M441.957,345.3242h-5.8154a.5583.5583,0,0,0-.5566.5567h0a.5572.5572,0,0,0,.5566.5546h5.8154a.5564.5564,0,0,0,.5557-.5546h0A.5575.5575,0,0,0,441.957,345.3242Z"/><path class="cls-50" d="M440.0566,347.4844h-3.915a.5576.5576,0,0,0-.5566.5566h0a.5589.5589,0,0,0,.5566.5567h3.915a.5585.5585,0,0,0,.5547-.5567h0A.5572.5572,0,0,0,440.0566,347.4844Z"/><path class="cls-50" d="M441.9551,347.4844h.0019a.5568.5568,0,0,1,.5557.5566h0a.5581.5581,0,0,1-.5557.5567h-.0019a.56.56,0,0,1-.5547-.5567h0A.5585.5585,0,0,1,441.9551,347.4844Z"/><path class="cls-33" d="M358.502,310.332c-.1543,2.252-1.5831,6.8321-2.3907,9.2793-1.124,3.4-2.667,3.3057-3.1035-.19-.3135-2.5166-.8174-7.2148-.5244-9.459C353.05,305.623,358.8018,305.9775,358.502,310.332Z"/><path class="cls-52" d="M355.3545,313.7549c.3232,2.2334-.11,7.0117-.3857,9.5742-.3838,3.5615-1.91,3.793-3.0733.4658-.8369-2.3935-2.3193-6.8818-2.5049-9.1357C349.0322,310.2979,354.73,309.4346,355.3545,313.7549Z"/><path class="cls-35" d="M354.9932,313.8916c-.6924,2.1494-1.0664,6.9316-1.2237,9.5029-.2177,3.5762,1.25,4.0586,2.9541.9756,1.2246-2.22,3.4375-6.3974,3.9981-8.5888C361.8066,311.542,356.332,309.7344,354.9932,313.8916Z"/><path class="cls-41" d="M345.5449,329.4854c-.6211,5.1044,1.1377,15.8984,2.1983,21.6806,1.4746,8.0352,5.7041,8.3916,8.5029.7168,2.0146-5.5234,5.5547-15.87,5.7978-21.0068C362.5117,320.9434,346.7461,319.6133,345.5449,329.4854Z"/><path class="cls-40" d="M345.5449,329.4854c-.0469.3857-.0791.8066-.1,1.2529.4951-.0987.9883-.1826,1.4356-.2588.0117-.0029.0254-.0078.039-.0127a.172.172,0,0,0,.0391-.001c.0195-.0029.0527-.0078.0674-.0107a28.67,28.67,0,0,1,3.5488-.4238c.125-.0157.3018-.0108.4326-.0186.293-.0127.6016-.0166.8906-.0488.4805-.0518.7188.0644,1.0459-.3711.3887-.5479-.3681-.87-.7812-1.0323a4.6031,4.6031,0,0,0-1.0606-.2695c-.165-.0224-.3281-.04-.497-.0508a18.1865,18.1865,0,0,0-3.9141.1914c-.0195.002-.0527.0079-.0742.0127a.1209.1209,0,0,0-.04.0108.2431.2431,0,0,0-.0458.0029c-.28.0527-.56.11-.8389.1748-.0615.2754-.1113.5586-.1475.8526Zm.7959,13.0878c.0957.6827.1963,1.3614.2959,2.0274h.0088c1.0723-.1533,2.1162-.2012,3.167-.335.5947-.0908,1.0137-.1631,1.0693-.8222.0577-.6875-.4531-.8086-1.0547-.9034a15.1486,15.1486,0,0,0-3.43.0245.0763.0763,0,0,0-.0332.01l-.0235-.001Zm9.5371,10.2539q.1875-.451.3682-.9443c.1152-.3125.2324-.6367.3545-.9775l-.1231-.0362a.0729.0729,0,0,0-.0322-.0048h0a.2516.2516,0,0,0-.0283-.0147,13.7727,13.7727,0,0,0-3.2764-.4629c-.5273.0059-1.5029-.0039-1.5635.71-.0576.6894.8477.8691,1.3545,1.0029.9991.2451,1.9307.418,2.9278.7256l.0185.0019Zm4.6992-14.2929c.1749-.6455.3379-1.28.4893-1.9a12.6127,12.6127,0,0,0-2.418-1.19.265.265,0,0,0-.0478-.0118.3035.3035,0,0,0-.044-.0195,21.8337,21.8337,0,0,0-5.0517-.8115c-.4492-.0195-.9053-.042-1.3565-.043-.5156.001-2.4316-.1279-2.5361.65-.0273.7842,1.8838.9775,2.3926,1.0674.4463.0723.9014.1113,1.3428.1836a20.7359,20.7359,0,0,1,4.5625.8994.1549.1549,0,0,0,.039.0078.0965.0965,0,0,0,.0362.0176,18.74,18.74,0,0,1,2.5917,1.15Zm-4.8642-7.9219a4.8051,4.8051,0,0,0,1.1406.2588l.0108-.0039.0127.0058a5.1562,5.1562,0,0,0,1.1914-.0712c.3984-.1329.4394-.458.47-.8262.0322-.3711.043-.6973-.334-.8926a5.1337,5.1337,0,0,0-1.165-.2549l-.0118.0059-.0107-.0059a4.7194,4.7194,0,0,0-1.1406.0655c-.3614.1289-.4.4863-.4414.82-.045.3535-.0811.6963.2783.8984Zm-1.917,13.9443a2.38,2.38,0,0,0,.6748.22l.0068-.0059.0059.0059a2.3918,2.3918,0,0,0,.7021-.1035c.3262-.1631.37-.5059.3975-.8321a.8928.8928,0,0,0-.2519-.8857,2.27,2.27,0,0,0-.6758-.2207l-.0059.0039-.0058-.0069a2.3608,2.3608,0,0,0-.7022.1045c-.3262.1641-.37.5059-.3984.833A.8977.8977,0,0,0,353.7959,344.5566Z"/><path class="cls-16" d="M344.5869,332.3809a5.4683,5.4683,0,1,1,.87,6.6894,4.007,4.007,0,1,1-5.0449-4.6689,2.3609,2.3609,0,0,1,4.1748-2.0205Z"/><path class="cls-7" d="M344.41,336.834a6.6181,6.6181,0,1,1,1.0556,8.0937,4.8483,4.8483,0,1,1-6.1035-5.6474,2.7671,2.7671,0,0,1-.0986-.7412,2.8558,2.8558,0,0,1,5.1465-1.7051Z"/><path class="cls-55" d="M369.9688,328.291s-2.1417-1.9189-2.0987-4.043,1.1143-2.7685,1.1279-3.3183-1.0771-1.4688-2.6025-1.2188-.5635,1.503-.8564,3.6924c-.295,2.19-.8545,4.0742-2.35,5.2119C361.6963,329.75,369.9688,328.291,369.9688,328.291Z"/><path class="cls-56" d="M368.9951,320.8662c-.0664-.5547-1.1318-1.3965-2.6-1.1553-.4648.0762-.6992.2442-.8076.5069.0557.4824,1.1045,1.0713,2.1641,1.209C368.959,321.584,368.9932,320.9043,368.9951,320.8662Z"/><path class="cls-37" d="M367.0352,329.3467a6.4293,6.4293,0,0,0-1.4747-.6455c-11.0185-3.501-17.3427,5.2666-15.9648,13.5654,1.2549,7.5752,7.6436,12.7,17.4395,10.1318Z"/><path class="cls-38" d="M367.0352,328.6a4.6152,4.6152,0,0,0-1.1641-.69c-8.6992-3.7324-13.6924,5.624-12.6035,14.4765.9912,8.0821,6.0332,13.55,13.7676,10.8125Z"/><path class="cls-37" d="M367.0352,329.3467a6.3662,6.3662,0,0,1,1.4716-.6455c11.0205-3.501,17.3438,5.2666,15.9678,13.5654-1.2578,7.5752-7.6445,12.7-17.4394,10.1318Z"/><path class="cls-38" d="M367.0352,328.6a4.5726,4.5726,0,0,1,1.1621-.69c8.6982-3.7324,13.6933,5.624,12.6054,14.4765-.9941,8.0821-6.0341,13.55-13.7675,10.8125Z"/><path class="cls-39" d="M362.1455,352.1826c-5.4326-6.5478-5.8789-25.123,4.89-25.0224,10.4668-.0977,10.3378,17.4492,5.3339,24.4443C369.8291,355.1543,365.0029,355.626,362.1455,352.1826Z"/><path class="cls-57" d="M371.0615,343.0479H447.25a3.2939,3.2939,0,0,1,3.2939,3.2939v55.8525a3.293,3.293,0,0,1-3.293,3.293H371.06a3.2939,3.2939,0,0,1-3.2939-3.2939V346.3428A3.2949,3.2949,0,0,1,371.0615,343.0479Z"/><rect class="cls-46" x="419.9023" y="348.2451" width="25.4463" height="52.0469"/><rect class="cls-57" x="371.0576" y="362.2178" width="76.1944" height="5.1943"/><rect class="cls-57" x="371.0576" y="381.1221" width="76.1944" height="5.1963"/><path class="cls-46" d="M335.6875,343.0479h76.19a3.292,3.292,0,0,1,3.292,3.292v55.8544a3.293,3.293,0,0,1-3.293,3.293H335.6885a3.2959,3.2959,0,0,1-3.2959-3.2959V346.3428A3.2949,3.2949,0,0,1,335.6875,343.0479Z"/><rect class="cls-48" x="337.5908" y="348.2451" width="72.3848" height="52.0469"/><rect class="cls-46" x="335.6855" y="362.2178" width="76.1944" height="5.1943"/><rect class="cls-46" x="335.6855" y="381.1221" width="76.1944" height="5.1963"/><path class="cls-35" d="M418.9043,343.0479h2.0342c4.5078,0,1.3349,10.1191,1.12,12.371-1.0781,11.2891,13.456,11.65,11.4551-3.6621C432.4707,343.7832,423.5908,337.207,418.9043,343.0479Z"/><path class="cls-33" d="M427.94,342.4717c-.2578-.1817-.5205-.3526-.7861-.5078l-1.291-.1826a7.501,7.501,0,0,0-1.6885-.9053,5.7858,5.7858,0,0,0-1.4971-.0225,8.3122,8.3122,0,0,1,.9883.2588c.08.0264.16.0537.24.084l-.5606.7539a.1952.1952,0,0,0,.042.2754.1989.1989,0,0,0,.2744-.041l.6211-.8389a6.8915,6.8915,0,0,1,1.3779.7764l.0235.0156a6.8388,6.8388,0,0,1,.707.5986l-1.31,1.1944a.196.196,0,0,0-.0127.2773.1989.1989,0,0,0,.2773.0137l1.3213-1.2051a7.5058,7.5058,0,0,1,.7236.9238c.1143.1709.2207.3467.3233.5293a9.0045,9.0045,0,0,1,.458.9473l-2.2451,1.7119a.1967.1967,0,0,0,.24.3115l2.1562-1.6425a13.1306,13.1306,0,0,1,.667,2.7353l.0059.0479-3.7158,3.041a.1971.1971,0,0,0,.25.3047l3.5254-2.8809a20.7365,20.7365,0,0,1,.1054,2.4639v.0136c-.0078.5352-.0341,1.0762-.0761,1.6133-.4717.46-3.8946,3.7949-4.2539,4.1924a.1994.1994,0,0,0,.0156.2793.1934.1934,0,0,0,.2763-.0166c.3116-.3418,2.917-2.8877,3.9063-3.8535a31.5494,31.5494,0,0,1-1.373,6.4853.1966.1966,0,1,0,.374.1211,31.0629,31.0629,0,0,0,.9931-3.872l1.8379,2.0615a.1964.1964,0,0,0,.2774.0156.2.2,0,0,0,.0176-.2783l-2.043-2.2891c.1562-.89.28-1.8086.3555-2.7334.038-.4511.0634-.9052.0771-1.3574L432.52,353.99a.2009.2009,0,0,0,.2744-.0488.1971.1971,0,0,0-.0488-.2744l-3.1894-2.251a20.0977,20.0977,0,0,0-.1748-2.9375c-.0371-.2607-.08-.5185-.127-.7744l2.542.92a.1966.1966,0,0,0,.1357-.3691l-2.7734-1.002a12.0433,12.0433,0,0,0-.5586-1.831l-.0088-.02c-.0986-.2481-.208-.4893-.3252-.7256l1.4512.3828a.1969.1969,0,1,0,.1-.3809l-1.8027-.4756c-.0928-.163-.1934-.3232-.2949-.48a7.67,7.67,0,0,0-1.2559-1.458Z"/><path class="cls-35" d="M387.5811,343.0479h-3.9727c-8.8174,0-2.6152,19.7832-2.1924,24.19,2.1074,22.0683-26.3086,22.7773-22.3945-7.1631C361.0576,344.4873,378.4229,331.6309,387.5811,343.0479Z"/><path class="cls-33" d="M369.918,341.9219c.5009-.3565,1.0146-.6875,1.5341-.9932l2.5225-.3545a14.6583,14.6583,0,0,1,3.3027-1.7715,11.5144,11.5144,0,0,1,2.93-.0439,16.382,16.382,0,0,0-1.9326.5049c-.1572.0527-.3154.1074-.47.1631l1.0957,1.4755a.3844.3844,0,1,1-.6182.4571l-1.2177-1.6406a13.77,13.77,0,0,0-2.6924,1.5185l-.043.0313a12.9968,12.9968,0,0,0-1.3857,1.1689l2.5644,2.3359a.3854.3854,0,0,1-.5195.5694l-2.5811-2.3545a14.14,14.14,0,0,0-1.415,1.8047c-.2227.3359-.4346.6816-.6328,1.0381a18.4024,18.4024,0,0,0-.8985,1.8505l4.39,3.3457a.3839.3839,0,1,1-.4658.61l-4.2159-3.2109a25.64,25.64,0,0,0-1.3056,5.3466l-.0127.0957,7.2646,5.9424a.3852.3852,0,1,1-.4873.5967l-6.89-5.6357a39.9571,39.9571,0,0,0-.21,4.8242v.0224c.0147,1.0489.0684,2.1026.1514,3.1553.9228.9,7.6133,7.417,8.3164,8.1983a.3852.3852,0,0,1-.5732.5146c-.6055-.6748-5.7022-5.6484-7.6368-7.5342a61.7112,61.7112,0,0,0,2.6856,12.6768.3845.3845,0,1,1-.7315.2373,61.851,61.851,0,0,1-1.9443-7.57l-3.5908,4.0293a.3846.3846,0,1,1-.5742-.5117l3.9892-4.4776c-.3027-1.7392-.5439-3.5332-.6933-5.3418-.0743-.8838-.1241-1.7734-.1514-2.6592l-5.8135,4.1026a.3842.3842,0,1,1-.4414-.6289l6.2354-4.4a38.9321,38.9321,0,0,1,.3447-5.7393q.1055-.7675.25-1.5185L362.375,353.95a.3831.3831,0,1,1-.26-.7207l5.419-1.959a23.7094,23.7094,0,0,1,1.0947-3.582l.0156-.0381c.1944-.4863.4063-.957.6348-1.419l-2.8369.7481a.3837.3837,0,1,1-.1953-.7422l3.5254-.9307q.2754-.4789.5781-.9384a14.9,14.9,0,0,1,2.4541-2.8516Z"/><path class="cls-14" d="M177.97,110.77a.5008.5008,0,1,1,1.0015,0v1.0069H179.98a.501.501,0,1,1,0,1.0019h-1.0078v1.0068a.5008.5008,0,1,1-1.0015,0v-1.0068h-1.0058a.501.501,0,0,1,0-1.0019H177.97Z"/><path class="cls-14" d="M111.7139,113.4214a.5.5,0,1,1,1,0v1.0063h1.0078a.5005.5005,0,1,1,0,1.001h-1.0078v1.0068a.5.5,0,1,1-1,0v-1.0068H110.708a.5005.5005,0,1,1,0-1.001h1.0059Z"/><path class="cls-14" d="M163.6592,234.8042a.5005.5005,0,1,1,1.001,0v1.0073h1.0073a.5005.5005,0,1,1,0,1.001H164.66v1.0059a.5005.5005,0,1,1-1.001,0v-1.0059h-1.0054a.5005.5005,0,1,1,0-1.001h1.0054Z"/><path class="cls-14" d="M200.2334,266.0762a.5.5,0,0,1,1.0005,0v1.0078h1.0078a.501.501,0,0,1,0,1.0019h-1.0078v1.0079a.5.5,0,0,1-1.0005,0v-1.0079h-1.0059a.501.501,0,1,1,0-1.0019h1.0059Z"/><path class="cls-14" d="M286.1553,266.02a.5015.5015,0,0,1,1.0029,0v1.0078h1.0059a.501.501,0,0,1,0,1.002h-1.0059v1.0049a.5015.5015,0,0,1-1.0029,0v-1.0049h-1.0069a.501.501,0,0,1,0-1.002h1.0069Z"/><path class="cls-14" d="M302.0576,135.6245a.501.501,0,0,1,1.002,0v1.0073h1.0058a.5005.5005,0,1,1,0,1.001H303.06v1.0064a.501.501,0,1,1-1.002,0v-1.0064h-1.0068a.5005.5005,0,1,1,0-1.001h1.0068Z"/><path class="cls-14" d="M310.0088,85.2686a.501.501,0,1,1,1.0019,0v1.0068h1.0059a.5008.5008,0,1,1,0,1.0015h-1.0059v1.0068a.501.501,0,0,1-1.0019,0V87.2769H309.001a.5008.5008,0,0,1,0-1.0015h1.0078Z"/><path class="cls-14" d="M378.916,183.8594a.501.501,0,0,1,1.002,0v1.0078h1.0058a.5005.5005,0,1,1,0,1.001H379.918v1.0068a.501.501,0,0,1-1.002,0v-1.0068h-1.0068a.5005.5005,0,0,1,0-1.001h1.0068Z"/><path class="cls-14" d="M104.8755,194.9385a.5012.5012,0,1,1,1.0024,0v1.0063h1.0059a.5005.5005,0,1,1,0,1.001h-1.0059v1.0068a.5012.5012,0,0,1-1.0024,0v-1.0068h-1.0068a.5.5,0,1,1,0-1.001h1.0068Z"/></g></svg>